<svg width="57" height="56" viewBox="0 0 57 56" fill="none" xmlns="http://www.w3.org/2000/svg">
<path d="M28.0186 56C43.4825 56 56.0186 43.464 56.0186 28C56.0186 12.536 43.4825 0 28.0186 0C12.5546 0 0.0185547 12.536 0.0185547 28C0.0185547 43.464 12.5546 56 28.0186 56Z" fill="#EC642A"/>
<path d="M27.9055 12.154C24.6281 12.158 21.4861 13.4617 19.1686 15.7791C16.8511 18.0966 15.5474 21.2386 15.5435 24.516C15.5395 27.1942 16.4142 29.7998 18.0335 31.933C18.0335 31.933 18.3705 32.377 18.4255 32.441L27.9055 43.621L37.3895 32.435C37.4385 32.375 37.7775 31.935 37.7775 31.935C39.396 29.8026 40.2704 27.1981 40.2665 24.521C40.2638 21.2429 38.9608 18.0998 36.6435 15.7812C34.3261 13.4627 31.1835 12.1582 27.9055 12.154ZM27.9055 29.011C27.0155 29.011 26.1454 28.7471 25.4054 28.2526C24.6654 27.7581 24.0886 27.0553 23.748 26.2331C23.4074 25.4108 23.3183 24.506 23.4919 23.6331C23.6656 22.7602 24.0942 21.9583 24.7235 21.329C25.3528 20.6997 26.1546 20.2711 27.0276 20.0975C27.9005 19.9238 28.8053 20.0129 29.6275 20.3535C30.4498 20.6941 31.1526 21.2709 31.6471 22.0109C32.1416 22.7509 32.4055 23.621 32.4055 24.511C32.4055 25.7045 31.9314 26.8491 31.0875 27.693C30.2435 28.5369 29.0989 29.011 27.9055 29.011Z" fill="white"/>
</svg>
