<svg width="14" height="7" viewBox="0 0 14 7" fill="none" xmlns="http://www.w3.org/2000/svg">
<path d="M6.88508 6.3088C6.75103 6.30899 6.61825 6.28754 6.49448 6.2457C6.37071 6.20385 6.2584 6.14243 6.16409 6.06502L0.725086 1.6453C0.54571 1.48795 0.448384 1.28022 0.453566 1.06577C0.458748 0.851325 0.566032 0.646859 0.752871 0.49535C0.93971 0.34384 1.19155 0.257087 1.45547 0.253322C1.71938 0.249558 1.97482 0.329076 2.16809 0.475164L6.88709 4.30981L11.6061 0.475164C11.7008 0.398171 11.8133 0.337098 11.9371 0.29543C12.0609 0.253762 12.1936 0.232315 12.3276 0.232315C12.4616 0.232315 12.5943 0.253762 12.7181 0.29543C12.8419 0.337098 12.9543 0.398171 13.0491 0.475164C13.1438 0.552156 13.219 0.64356 13.2703 0.744156C13.3215 0.844751 13.3479 0.952569 13.3479 1.06145C13.3479 1.17034 13.3215 1.27815 13.2703 1.37875C13.219 1.47934 13.1438 1.57075 13.0491 1.64774L7.60909 6.06827C7.41649 6.22321 7.1561 6.30972 6.88508 6.3088Z" fill="black"/>
</svg>
