<svg width="66" height="46" viewBox="0 0 66 46" fill="none" xmlns="http://www.w3.org/2000/svg">
<path d="M12.8449 0.49794H53.0939C53.7353 0.493072 54.371 0.618152 54.9627 0.865639C55.5545 1.11313 56.0899 1.47789 56.5369 1.93794C57.4473 2.89483 58.0568 4.09789 58.2899 5.39794L65.1959 39.9279C65.2486 40.1941 65.2754 40.4647 65.2759 40.7359C65.2667 41.3236 65.1402 41.9035 64.9039 42.4417C64.6677 42.9799 64.3263 43.4654 63.8999 43.8699C63.1127 44.6433 62.1176 45.171 61.0359 45.3889C60.6865 45.4613 60.3307 45.4978 59.9739 45.4979H3.10188C0.779879 45.2409 -0.133121 43.5299 0.0148791 41.2729L6.51488 8.33494C6.89788 6.86294 7.25288 5.32294 7.70488 4.08494C7.77888 3.8521 7.87324 3.62622 7.98688 3.40994L8.01388 3.35694C8.2465 2.90731 8.55044 2.49834 8.91388 2.14594C9.6809 1.38426 10.6478 0.855203 11.7029 0.61994C12.0782 0.539209 12.461 0.498316 12.8449 0.49794ZM25.7869 25.4669C23.1309 22.6139 27.1999 18.3749 30.1379 21.0569C31.1739 22.0029 32.6829 23.3839 33.7289 24.3239L41.4119 14.7979C44.2279 11.8979 48.6579 16.1579 45.8849 19.0799L36.1419 30.7799C35.5853 31.364 34.8243 31.71 34.0183 31.7456C33.2123 31.7812 32.4238 31.5036 31.8179 30.9709C30.1019 29.3349 27.5679 26.9809 25.7829 25.4709L25.7869 25.4669ZM53.0939 3.95594H12.8449C12.7074 3.95627 12.5704 3.97068 12.4359 3.99894C12.0343 4.08844 11.6659 4.28908 11.3729 4.57794C11.1801 4.74598 11.0601 4.9822 11.0379 5.23694C11.8719 14.0929 16.4299 30.4079 18.4759 39.8909C18.5883 40.5295 18.8772 41.124 19.3099 41.6069C19.4374 41.7386 19.5902 41.8432 19.7591 41.9143C19.928 41.9855 20.1096 42.0217 20.2929 42.0209H60.0479C60.1711 42.0193 60.2938 42.0069 60.4149 41.9839C60.8317 41.8997 61.2154 41.6969 61.5199 41.3999C61.7197 41.222 61.845 40.9752 61.8709 40.7089V40.5759L54.9639 6.04394C54.8636 5.41464 54.5829 4.82793 54.1559 4.35494C54.0268 4.21993 53.8715 4.11262 53.6996 4.03955C53.5277 3.96649 53.3427 3.92919 53.1559 3.92994L53.0939 3.95594Z" fill="#270B79"/>
</svg>
