<svg width="66" height="46" viewBox="0 0 66 46" fill="none" xmlns="http://www.w3.org/2000/svg">
<path d="M12.8454 0.751113H53.0944C53.7357 0.746247 54.3715 0.871278 54.9632 1.11867C55.5549 1.36605 56.0904 1.73068 56.5374 2.19054C57.4478 3.14705 58.0573 4.34963 58.2904 5.64916L65.1964 40.1654C65.2491 40.4314 65.2759 40.7019 65.2764 40.9731C65.2672 41.5605 65.1407 42.1402 64.9044 42.6782C64.6681 43.2161 64.3268 43.7015 63.9004 44.1059C63.1132 44.8789 62.1181 45.4064 61.0364 45.6242C60.687 45.6966 60.3312 45.7331 59.9744 45.7332H3.10237C0.780367 45.4763 -0.132633 43.766 0.0153674 41.5099L6.51537 8.58499C6.89837 7.11358 7.25337 5.57419 7.70537 4.33669C7.77936 4.10393 7.87373 3.87815 7.98737 3.66195L8.01437 3.60898C8.24698 3.15952 8.55092 2.75072 8.91437 2.39846C9.68139 1.63708 10.6483 1.10823 11.7034 0.873065C12.0787 0.792366 12.4615 0.751489 12.8454 0.751113ZM25.7874 25.7102C23.1314 22.8583 27.2004 18.621 30.1384 21.3019C31.1744 22.2476 32.6834 23.628 33.7294 24.5676L41.4124 15.0454C44.2284 12.1466 48.6584 16.4049 45.8854 19.3257L36.1424 31.0211C35.5858 31.6048 34.8248 31.9507 34.0188 31.9863C33.2128 32.0219 32.4243 31.7444 31.8184 31.212C30.1024 29.5766 27.5684 27.2236 25.7834 25.7142L25.7874 25.7102ZM53.0944 4.20774H12.8454C12.7079 4.20807 12.5709 4.22247 12.4364 4.25072C12.0347 4.34019 11.6664 4.54074 11.3734 4.82949C11.1806 4.99746 11.0605 5.23359 11.0384 5.48823C11.8724 14.3407 16.4304 30.6492 18.4764 40.1284C18.5888 40.7668 18.8777 41.361 19.3104 41.8438C19.4379 41.9754 19.5907 42.0799 19.7596 42.151C19.9285 42.2221 20.1101 42.2584 20.2934 42.2576H60.0484C60.1715 42.2559 60.2943 42.2435 60.4154 42.2206C60.8322 42.1363 61.2159 41.9337 61.5204 41.6368C61.7202 41.459 61.8455 41.2123 61.8714 40.9461V40.8132L54.9644 6.29491C54.8641 5.66585 54.5834 5.07938 54.1564 4.60658C54.0273 4.47162 53.872 4.36436 53.7001 4.29132C53.5282 4.21828 53.3432 4.181 53.1564 4.18175L53.0944 4.20774Z" fill="#270B79"/>
</svg>
