<svg width="14" height="15" viewBox="0 0 14 15" fill="none" xmlns="http://www.w3.org/2000/svg">
<path d="M6.86901 0.397675C5.04797 0.39961 3.30219 0.988304 2.01452 2.03466C0.72685 3.08102 0.00238895 4.49963 7.63198e-06 5.9794C-0.00222164 7.1889 0.483978 8.36559 1.38401 9.32893C1.38401 9.32893 1.57101 9.52964 1.60201 9.55808L6.87001 14.6059L12.14 9.55483C12.167 9.52801 12.355 9.32811 12.355 9.32811C13.2543 8.36512 13.7401 7.18907 13.738 5.98021C13.7359 4.5003 13.0115 3.08148 11.7238 2.03495C10.4361 0.988416 8.69022 0.39961 6.86901 0.397675ZM6.86901 8.00927C6.37455 8.00927 5.89121 7.89012 5.48008 7.6669C5.06896 7.44368 4.74853 7.1264 4.55931 6.7552C4.37009 6.38399 4.32058 5.97552 4.41704 5.58145C4.51351 5.18738 4.75161 4.8254 5.10124 4.54129C5.45087 4.25719 5.89633 4.0637 6.38128 3.98532C6.86623 3.90693 7.3689 3.94716 7.82572 4.10092C8.28253 4.25468 8.67298 4.51506 8.94768 4.84914C9.22238 5.18322 9.36901 5.57599 9.36901 5.97778C9.36901 6.51656 9.10562 7.03328 8.63677 7.41426C8.16793 7.79524 7.53205 8.00927 6.86901 8.00927Z" fill="#270B79"/>
</svg>
