<svg width="97" height="67" viewBox="0 0 97 67" fill="none" xmlns="http://www.w3.org/2000/svg">
<path d="M3.31543 59.384H0.773438V58.01H7.37343V59.384H4.83243V66.025H3.32043L3.31543 59.384Z" fill="#E54B1C"/>
<path d="M15.395 66.024H13.595L11.259 63.344H9.80397V66.024H8.29297V57.998C9.56297 57.998 10.834 58.01 12.105 58.01C12.4726 57.9781 12.8429 58.0231 13.1921 58.1422C13.5414 58.2612 13.862 58.4518 14.1336 58.7017C14.4051 58.9516 14.6216 59.2553 14.7692 59.5935C14.9168 59.9317 14.9924 60.297 14.991 60.666C15.0328 61.264 14.8473 61.8557 14.4714 62.3226C14.0955 62.7895 13.5571 63.0972 12.964 63.184L15.392 65.921L15.395 66.024ZM9.80597 59.417V61.982H12.106C12.2811 61.993 12.4567 61.9679 12.6218 61.9084C12.7869 61.8489 12.938 61.7562 13.0659 61.636C13.1938 61.5159 13.2958 61.3708 13.3654 61.2097C13.4351 61.0487 13.4711 60.875 13.4711 60.6995C13.4711 60.524 13.4351 60.3504 13.3654 60.1893C13.2958 60.0282 13.1938 59.8832 13.0659 59.763C12.938 59.6428 12.7869 59.5501 12.6218 59.4906C12.4567 59.4311 12.2811 59.4061 12.106 59.417H9.80597Z" fill="#E54B1C"/>
<path d="M21.7035 64.514H17.5175L16.8285 66.025H15.1875L18.7825 58.011H20.4325L24.0275 66.025H22.3795L21.7035 64.514ZM19.6035 59.693L18.1175 63.105H21.0935L19.6035 59.693Z" fill="#E54B1C"/>
<path d="M29.5349 59.945C29.3119 59.6558 29.0232 59.424 28.6928 59.2685C28.3624 59.113 27.9998 59.0385 27.6349 59.051C26.5139 59.051 25.9749 59.521 25.9749 60.117C25.9749 60.817 26.7999 61.009 27.7609 61.125C29.4329 61.33 30.9899 61.766 30.9899 63.678C30.9899 65.464 29.4089 66.232 27.6239 66.232C25.9849 66.232 24.7239 65.732 24.1309 64.262L25.3899 63.609C25.593 64.0242 25.9172 64.3681 26.3198 64.5952C26.7224 64.8223 27.1844 64.9219 27.6449 64.881C28.5959 64.881 29.4889 64.549 29.4889 63.681C29.4889 62.926 28.6989 62.616 27.6339 62.503C25.9959 62.303 24.4849 61.873 24.4849 60.075C24.4849 58.427 26.1109 57.75 27.5849 57.739C28.2074 57.6714 28.8361 57.7857 29.395 58.0681C29.9539 58.3505 30.4189 58.7888 30.7339 59.33L29.5349 59.945Z" fill="#E54B1C"/>
<path d="M35.9332 63.667H33.6692V66.026H32.1572V58.011C33.4172 58.011 34.6772 58 35.9362 58C36.3161 57.9876 36.6946 58.0518 37.0491 58.1886C37.4037 58.3254 37.7271 58.5322 38.0002 58.7965C38.2733 59.0608 38.4904 59.3774 38.6387 59.7273C38.787 60.0773 38.8634 60.4534 38.8634 60.8335C38.8634 61.2136 38.787 61.5897 38.6387 61.9397C38.4904 62.2896 38.2733 62.6062 38.0002 62.8705C37.7271 63.1348 37.4037 63.3416 37.0491 63.4784C36.6946 63.6152 36.3161 63.6794 35.9362 63.667M33.6692 62.282H35.9362C36.3128 62.282 36.674 62.1324 36.9403 61.8661C37.2066 61.5998 37.3562 61.2386 37.3562 60.862C37.3562 60.4854 37.2066 60.1242 36.9403 59.8579C36.674 59.5916 36.3128 59.442 35.9362 59.442H33.6692V62.282Z" fill="#E54B1C"/>
<path d="M45.5863 64.5139H41.3953L40.7083 66.0249H39.0703L42.6703 58.0109H44.3183L47.9183 66.0249H46.2623L45.5863 64.5139ZM44.9803 63.1049L43.4923 59.6929L42.0023 63.1049H44.9803ZM45.3573 55.5589H43.7093L42.8623 57.1159V57.1849H44.0993L45.3583 55.6159L45.3573 55.5589Z" fill="#E54B1C"/>
<path d="M53.4186 59.945C53.1956 59.6558 52.907 59.424 52.5766 59.2685C52.2462 59.113 51.8836 59.0385 51.5186 59.051C50.3976 59.051 49.8596 59.521 49.8596 60.117C49.8596 60.817 50.6846 61.009 51.6446 61.125C53.3166 61.33 54.8756 61.766 54.8756 63.678C54.8756 65.464 53.2946 66.232 51.5086 66.232C49.8706 66.232 48.6086 65.732 48.0156 64.262L49.2746 63.609C49.478 64.0242 49.8025 64.368 50.2052 64.5951C50.608 64.8222 51.0701 64.9219 51.5306 64.881C52.4816 64.881 53.3746 64.549 53.3746 63.681C53.3746 62.926 52.5846 62.616 51.5186 62.503C49.8826 62.303 48.3716 61.873 48.3716 60.075C48.3716 58.427 49.9966 57.75 51.4716 57.739C52.0941 57.6714 52.7229 57.7857 53.2818 58.0681C53.8406 58.3505 54.3057 58.7888 54.6206 59.33L53.4186 59.945Z" fill="#E54B1C"/>
<path d="M61.7309 64.514H57.5399L56.8519 66.025H55.2129L58.8079 58.011H60.4579L64.0529 66.025H62.4049L61.7309 64.514ZM59.6309 59.693L58.1429 63.105H61.1189L59.6309 59.693Z" fill="#E54B1C"/>
<path d="M66.3675 58.01V64.629H70.4895V66.029H64.8555V58.01H66.3675Z" fill="#E54B1C"/>
<path d="M79.1912 62.063C79.1926 63.1549 78.7603 64.2027 77.9892 64.9758C77.2182 65.7489 76.1716 66.1841 75.0797 66.1855C73.9878 66.187 72.94 65.7546 72.1669 64.9836C71.3938 64.2125 70.9586 63.1659 70.9572 62.074C70.9444 61.5258 71.0412 60.9805 71.242 60.4702C71.4428 59.9598 71.7435 59.4948 72.1265 59.1022C72.5095 58.7097 72.967 58.3976 73.4722 58.1843C73.9774 57.971 74.5201 57.8607 75.0685 57.86C75.617 57.8592 76.16 57.968 76.6658 58.18C77.1715 58.392 77.6299 58.7029 78.0139 59.0944C78.3979 59.4859 78.6999 59.9501 78.902 60.4599C79.1042 60.9697 79.2025 61.5147 79.1912 62.063ZM72.4462 62.097C72.4315 62.4517 72.4888 62.8058 72.6147 63.1377C72.7405 63.4697 72.9323 63.7727 73.1784 64.0286C73.4244 64.2845 73.7198 64.4879 74.0466 64.6266C74.3734 64.7653 74.7249 64.8363 75.0799 64.8355C75.4349 64.8347 75.7861 64.762 76.1123 64.6219C76.4385 64.4817 76.7329 64.2769 76.9778 64.0199C77.2227 63.7629 77.4131 63.459 77.5374 63.1265C77.6617 62.7939 77.7174 62.4397 77.7012 62.085C77.733 61.7202 77.6884 61.3527 77.5704 61.006C77.4524 60.6593 77.2635 60.3409 77.0157 60.0712C76.768 59.8015 76.4667 59.5864 76.1312 59.4395C75.7958 59.2926 75.4334 59.2171 75.0671 59.218C74.7009 59.2188 74.3388 59.2959 74.004 59.4443C73.6692 59.5928 73.3689 59.8093 73.1224 60.0801C72.8759 60.351 72.6884 60.6702 72.572 61.0174C72.4555 61.3646 72.4127 61.7323 72.4462 62.097Z" fill="#E54B1C"/>
<path d="M81.8121 65.305C81.8121 65.5236 81.7253 65.7332 81.5707 65.8877C81.4162 66.0422 81.2066 66.129 80.9881 66.129C80.7695 66.129 80.5599 66.0422 80.4054 65.8877C80.2509 65.7332 80.1641 65.5236 80.1641 65.305C80.1641 65.0865 80.2509 64.8769 80.4054 64.7224C80.5599 64.5679 80.7695 64.481 80.9881 64.481C81.2066 64.481 81.4162 64.5679 81.5707 64.7224C81.7253 64.8769 81.8121 65.0865 81.8121 65.305Z" fill="#E54B1C"/>
<path d="M89.0498 66.025H83.0498V58.01H89.0498V59.476H84.5498V61.319H88.8898V62.728H84.5498V64.537H89.0498V66.025Z" fill="#E54B1C"/>
<path d="M95.402 59.945C95.179 59.6558 94.8904 59.4239 94.56 59.2685C94.2296 59.113 93.8669 59.0385 93.502 59.051C92.381 59.051 91.843 59.521 91.843 60.117C91.843 60.817 92.667 61.009 93.628 61.125C95.3 61.33 96.859 61.766 96.859 63.678C96.859 65.464 95.277 66.232 93.492 66.232C91.854 66.232 90.592 65.732 89.999 64.262L91.258 63.609C91.4614 64.0242 91.7859 64.368 92.1886 64.5951C92.5914 64.8221 93.0535 64.9218 93.514 64.881C94.465 64.881 95.358 64.549 95.358 63.681C95.358 62.926 94.568 62.6159 93.502 62.5029C91.866 62.3029 90.353 61.873 90.353 60.075C90.353 58.427 91.979 57.7499 93.453 57.7389C94.0757 57.6714 94.7045 57.7858 95.2635 58.0681C95.8226 58.3505 96.2878 58.7888 96.603 59.33L95.402 59.945Z" fill="#E54B1C"/>
<path d="M69.0383 27.024C67.5194 24.8499 65.8837 22.7599 64.1383 20.763C62.39 18.9057 60.4288 17.2611 58.2953 15.863C57.5827 15.3872 56.782 15.0589 55.9404 14.8974C55.0989 14.736 54.2335 14.7447 53.3953 14.923C52.2846 15.1954 51.2726 15.774 50.4743 16.593C47.4634 19.806 43.4263 20.859 40.6643 19.411C39.5139 18.7777 38.5994 17.7891 38.0573 16.593C37.9734 16.443 37.9251 16.2757 37.9161 16.1041C37.9071 15.9324 37.9376 15.761 38.0053 15.603C38.1058 15.399 38.2706 15.2338 38.4743 15.133C39.3246 14.6128 40.1277 14.0192 40.8743 13.359C42.6473 11.791 43.2603 10.581 45.1513 8.142C46.9723 5.793 47.8823 4.62 48.5953 4.178C50.4213 3.046 52.5593 2.79 55.7953 2.404H55.8253C55.8974 2.39579 55.9666 2.37079 56.0272 2.33102C56.0879 2.29125 56.1384 2.23781 56.1746 2.175C56.2109 2.11218 56.232 2.04173 56.2361 1.96931C56.2402 1.8969 56.2273 1.82452 56.1983 1.758L56.1373 1.738L55.7893 1.629L55.6783 1.597C55.3023 1.483 54.9213 1.38 54.5373 1.286L54.3783 1.248C54.2713 1.222 54.1633 1.198 54.0553 1.174C53.9903 1.158 53.9253 1.145 53.8603 1.132L53.5493 1.066L53.3233 1.022C53.1643 0.992999 53.0043 0.963996 52.8453 0.936996L52.5564 0.887997L52.3043 0.850998L52.0043 0.809998L51.7683 0.779999C51.6483 0.764999 51.5283 0.750998 51.4093 0.738998C51.3493 0.731998 51.2903 0.723998 51.2303 0.718998C51.053 0.701665 50.8757 0.685664 50.6983 0.670998L50.5463 0.661999C50.4103 0.650999 50.2733 0.641998 50.1373 0.635998L49.9503 0.626999C49.8183 0.619999 49.6843 0.614996 49.5503 0.610996H49.3833C49.1963 0.610996 49.0103 0.602997 48.8223 0.602997H48.7893C48.6013 0.602997 48.4133 0.602997 48.2253 0.609997C48.1473 0.609997 48.0693 0.614996 47.9913 0.617996C47.8723 0.617996 47.7533 0.625999 47.6343 0.632999C47.5433 0.632999 47.4503 0.641998 47.3593 0.648998C47.2683 0.655998 47.1513 0.660999 47.0473 0.668999C46.9433 0.676999 46.8473 0.684997 46.7543 0.692997L46.4633 0.718998C46.3633 0.727998 46.2633 0.739996 46.1633 0.750996L45.8893 0.782997L45.5773 0.823997L45.3153 0.859997L44.9973 0.909996C44.9143 0.922996 44.8303 0.935996 44.7483 0.950996L44.4213 1.009L44.1853 1.054L43.8533 1.123C43.7793 1.138 43.7033 1.155 43.6313 1.171C43.5173 1.196 43.4033 1.221 43.2893 1.249L43.0844 1.299L42.7303 1.388L42.5473 1.438C42.4243 1.471 42.3013 1.504 42.1783 1.538L42.0283 1.583C41.8943 1.623 41.7633 1.661 41.6283 1.703L41.5393 1.732C41.04 1.89067 40.548 2.06533 40.0633 2.256L40.0393 2.265C39.9053 2.318 39.7743 2.374 39.6393 2.428C38.5885 2.86872 37.5711 3.38542 36.5953 3.974C35.9253 4.374 25.2803 11.056 24.9093 23.903C24.9093 24.027 24.9043 24.153 24.9023 24.278C24.9023 24.34 24.9023 24.404 24.9023 24.467C24.9023 24.53 24.9023 24.58 24.9023 24.636C24.9023 24.8 24.9023 24.963 24.9093 25.126V25.159C24.9307 25.9363 24.988 26.703 25.0813 27.459C25.7272 32.1952 27.7214 36.6457 30.8263 40.28C33.8022 43.6804 37.6796 46.1693 42.0103 47.459C43.9885 48.0253 46.0274 48.3523 48.0833 48.433H48.1293H48.2193C48.4193 48.438 48.6193 48.441 48.8243 48.441H48.9153C49.0923 48.441 49.2703 48.441 49.4464 48.434L49.5883 48.429C49.7473 48.424 49.9073 48.418 50.0663 48.41H50.0733C50.1672 48.3796 50.2503 48.3228 50.3129 48.2466C50.3755 48.1703 50.415 48.0777 50.4265 47.9797C50.4381 47.8818 50.4214 47.7825 50.3783 47.6938C50.3351 47.605 50.2675 47.5305 50.1833 47.479C48.1144 46.2183 46.1806 44.7483 44.4123 43.092C42.9968 41.7639 41.6943 40.3202 40.5183 38.776C40.3798 38.5854 40.3226 38.3476 40.3593 38.1149C40.3961 37.8822 40.5238 37.6736 40.7143 37.535C40.9049 37.3964 41.1427 37.3392 41.3754 37.376C41.6082 37.4127 41.8168 37.5404 41.9553 37.731C44.7478 41.7852 48.4573 45.1236 52.7823 47.475C53.1526 47.6765 53.5542 47.8138 53.9703 47.881C53.9845 47.8788 53.9985 47.8757 54.0123 47.872C54.1363 47.846 54.2603 47.816 54.3833 47.787L54.4643 47.767C54.8483 47.674 55.2273 47.572 55.6043 47.461L55.7343 47.423L56.0723 47.323L56.1853 47.287C56.4093 47.2143 56.6313 47.139 56.8513 47.061L56.9333 47.032L57.2453 46.917L57.4083 46.855C57.5083 46.817 57.6083 46.778 57.7083 46.737L57.8624 46.675C58.0414 46.602 58.2193 46.527 58.3963 46.449L58.5613 46.377L58.8353 46.253C58.8973 46.224 58.9613 46.195 59.0233 46.164C59.1123 46.122 59.2003 46.081 59.2893 46.037C59.3543 46.007 59.4173 45.973 59.4823 45.937C59.629 45.8643 59.7747 45.7903 59.9193 45.715L60.1263 45.606L60.3683 45.474L60.4683 45.42C60.4833 45.3088 60.4682 45.1956 60.4246 45.0922C60.381 44.9887 60.3104 44.8989 60.2203 44.832C57.2338 42.5945 54.3946 40.1668 51.7203 37.564C49.8313 35.725 48.1373 33.908 46.6203 32.157C46.542 32.0663 46.4848 31.9594 46.4527 31.8439C46.4207 31.7284 46.4146 31.6073 46.435 31.4892C46.4554 31.3711 46.5017 31.259 46.5705 31.1609C46.6394 31.0628 46.7292 30.9812 46.8333 30.922L46.8463 30.914C47.0119 30.8193 47.2055 30.7859 47.3932 30.8195C47.581 30.8532 47.7509 30.9517 47.8733 31.098C51.9769 36.0285 56.6973 40.4111 61.9184 44.138C62.0368 44.2216 62.1783 44.2663 62.3233 44.266L62.4103 44.205C62.5757 44.0897 62.7403 43.9727 62.9043 43.854C62.9493 43.821 62.9973 43.788 63.0423 43.754C63.2373 43.61 63.4313 43.463 63.6223 43.31C63.6523 43.287 63.6823 43.262 63.7123 43.24C63.8753 43.109 64.0353 42.976 64.1953 42.84L64.3463 42.713C64.5213 42.562 64.6964 42.413 64.8663 42.256L64.8953 42.23C65.074 42.0673 65.25 41.9007 65.4233 41.73L65.5693 41.588C65.7073 41.45 65.8463 41.313 65.9813 41.172C66.0193 41.134 66.0563 41.097 66.0923 41.058C66.2563 40.886 66.4187 40.7117 66.5793 40.535L66.7013 40.396C66.8273 40.257 66.9503 40.114 67.0723 39.97L67.1553 39.87C67.1421 39.6517 67.059 39.4434 66.9184 39.276C64.3723 36.235 62.4443 33.828 61.1083 32.129C59.8028 30.4242 58.4093 28.7886 56.9333 27.229C55.9534 26.203 55.0633 25.348 54.3483 24.689C54.2665 24.6134 54.2011 24.5217 54.1564 24.4197C54.1118 24.3176 54.0887 24.2074 54.0887 24.096C54.0887 23.9846 54.1118 23.8744 54.1564 23.7723C54.2011 23.6703 54.2665 23.5786 54.3483 23.503L54.3603 23.491C54.4376 23.4193 54.5282 23.3636 54.627 23.3271C54.7259 23.2906 54.8309 23.2739 54.9362 23.2781C55.0415 23.2823 55.1449 23.3072 55.2405 23.3515C55.3361 23.3957 55.422 23.4584 55.4933 23.536C57.544 25.7487 59.6233 28.0927 61.7313 30.568C63.9383 33.168 65.8373 35.568 67.7313 38.028C67.8061 38.1265 67.9071 38.2021 68.0227 38.2459C68.1384 38.2898 68.264 38.3002 68.3853 38.276C68.8013 37.6853 69.191 37.076 69.5543 36.448C70.0203 35.487 70.4973 34.535 70.9613 33.572C70.9883 33.51 71.0143 33.446 71.0393 33.383L71.1113 33.202C71.1603 33.079 71.2113 32.954 71.2533 32.831C71.2703 32.783 71.2873 32.731 71.3064 32.687C71.3604 32.539 71.4123 32.387 71.4643 32.238L71.4893 32.167C71.5593 31.955 71.6277 31.7417 71.6943 31.527C71.7061 30.9896 71.5426 30.4631 71.2283 30.027C70.6163 29.174 69.8793 28.157 69.0373 27.02" fill="#141E61"/>
<path d="M72.731 25.1729C72.731 25.1449 72.731 25.1169 72.731 25.0899C72.731 25.0119 72.731 24.9319 72.731 24.8539C72.6833 19.8655 71.1798 14.9997 68.405 10.8539C67.697 9.81883 66.9089 8.84083 66.048 7.92895C65.994 7.87195 65.938 7.81595 65.883 7.75995C65.8 7.67495 65.716 7.59095 65.631 7.50695C65.569 7.44495 65.5066 7.38395 65.444 7.32395C65.358 7.24095 65.271 7.15794 65.184 7.07594L64.996 6.90095L64.719 6.65095L64.539 6.49195C64.439 6.40295 64.334 6.31495 64.229 6.22695L64.074 6.09495C63.939 5.98395 63.804 5.87395 63.666 5.76495L63.597 5.70895C63.432 5.58095 63.266 5.45195 63.097 5.32795C63.076 5.31195 63.053 5.29595 63.033 5.27995C62.887 5.17395 62.743 5.06795 62.597 4.96395L62.457 4.86395C62.333 4.77795 62.209 4.69195 62.085 4.60795L62.023 4.56695C61.5786 4.36803 61.0996 4.25797 60.613 4.24295L54.526 4.06695C53.4919 3.96848 52.4486 4.08434 51.4613 4.4073C50.474 4.73026 49.5639 5.25337 48.788 5.94394C48.325 6.4017 47.9376 6.92992 47.64 7.50895C47.129 8.17995 46.415 9.10894 45.552 10.2219C44.6272 11.5061 43.6165 12.7262 42.527 13.8739C41.6062 14.7785 40.5922 15.583 39.502 16.2739C40.0913 17.2613 41.0175 18.0024 42.11 18.3609C44.456 19.0519 46.91 17.3429 47.848 16.6909C48.433 16.2849 48.666 16.0249 49.935 15.1259C50.527 14.7079 51.66 13.9259 52.126 13.6659C53.3177 13.1098 54.6767 13.0289 55.926 13.4399C57.5257 13.8129 59.0227 14.5363 60.309 15.5579C64.7935 19.0747 68.6546 23.3206 71.731 28.1179C71.7675 28.1757 71.8158 28.2252 71.8727 28.2631C71.9296 28.3011 71.9939 28.3266 72.0613 28.3381C72.1287 28.3496 72.1978 28.3468 72.2641 28.3299C72.3303 28.313 72.3923 28.2824 72.446 28.2399C72.546 27.6239 72.617 26.9989 72.665 26.3689V26.3409C72.695 25.9529 72.714 25.5619 72.725 25.1709" fill="#E54B1C"/>
</svg>
