<svg width="47" height="46" viewBox="0 0 47 46" fill="none" xmlns="http://www.w3.org/2000/svg">
<path d="M17.3676 2.83605C17.0547 3.03022 16.8228 3.33119 16.7147 3.68323C16.6067 4.03527 16.6298 4.41453 16.7799 4.75081C16.93 5.08709 17.1968 5.3576 17.531 5.51226C17.8652 5.66693 18.2441 5.69527 18.5976 5.59205C19.4864 5.14625 20.4003 4.75225 21.3346 4.41205C21.6957 4.28845 21.9968 4.03292 22.1775 3.69669C22.3581 3.36045 22.405 2.96836 22.3088 2.599C22.2125 2.22964 21.9802 1.91031 21.6584 1.70503C21.3366 1.49974 20.9491 1.42366 20.5736 1.49205C19.464 1.82997 18.3918 2.28031 17.3736 2.83605H17.3676ZM20.1626 22.918V20.554L23.7106 16.93C23.9118 16.7321 24.1012 16.5224 24.2776 16.302C24.4263 16.1286 24.5542 15.9383 24.6586 15.735C24.7439 15.5568 24.788 15.3616 24.7876 15.164C24.7956 14.9799 24.7535 14.7971 24.6656 14.635C24.5797 14.4917 24.4441 14.3849 24.2846 14.335C24.0744 14.2679 23.8542 14.2371 23.6336 14.244H20.3456V11.881C20.8456 11.767 21.4076 11.664 22.0286 11.565C22.7423 11.4624 23.4627 11.4139 24.1836 11.42C24.9097 11.3899 25.6336 11.5189 26.3046 11.798C26.7945 12.0137 27.1885 12.401 27.4126 12.887C27.6469 13.4444 27.7584 14.0457 27.7396 14.65C27.7455 15.1134 27.678 15.5748 27.5396 16.017C27.4059 16.4242 27.2121 16.8092 26.9646 17.159C26.6915 17.5427 26.3857 17.9021 26.0506 18.233L24.0866 20.243H28.0456V22.908L20.1626 22.918ZM33.8676 22.918V20.812H29.1316L28.6096 19.506L31.9096 11.511H34.9556L32.1556 18.295H33.8726V16.605L34.4396 15.132H36.8496V18.298H37.7706V20.354L36.8496 20.815V22.918H33.8676ZM11.4936 21.273C12.8745 23.8486 14.5786 26.2372 16.5646 28.381C18.8804 30.8093 21.601 32.8162 24.6046 34.312C24.7104 34.3686 24.8275 34.401 24.9473 34.4069C25.0671 34.4128 25.1868 34.392 25.2976 34.346C25.6642 34.181 25.9933 33.9428 26.2646 33.646C26.5782 33.3048 26.8694 32.9437 27.1366 32.565C28.4276 30.865 30.0266 28.758 32.2836 29.812L32.4206 29.884L39.9476 34.213L40.0236 34.262C40.4852 34.5937 40.8563 35.0357 41.1029 35.5477C41.3496 36.0597 41.464 36.6254 41.4356 37.193C41.3842 38.5087 41.0062 39.7909 40.3356 40.924C39.5041 42.3534 38.233 43.4759 36.7116 44.124C35.2872 44.736 33.7838 45.1447 32.2456 45.338C29.9579 45.6722 27.624 45.4769 25.4236 44.767C23.0084 43.9573 20.7057 42.8444 18.5706 41.455L18.3996 41.345C17.2806 40.652 16.0776 39.906 14.8996 39.026C10.1891 35.4628 6.2455 30.9862 3.30461 25.864C0.904615 21.509 -0.411385 16.807 0.304615 12.33C0.591916 9.93632 1.76402 7.73658 3.59061 6.16305C4.51357 5.45418 5.56763 4.93488 6.6921 4.63506C7.81658 4.33523 8.98925 4.2608 10.1426 4.41605C10.2999 4.42582 10.4522 4.47511 10.5854 4.55937C10.7186 4.64362 10.8284 4.7601 10.9046 4.89805L15.7166 13.06C16.0392 13.4281 16.2491 13.8812 16.3212 14.3652C16.3934 14.8493 16.3248 15.3439 16.1236 15.79C15.7005 16.6303 15.0639 17.3445 14.2776 17.861C14.0146 18.086 13.7066 18.306 13.3826 18.542C12.3056 19.322 11.0756 20.229 11.4986 21.298V21.271L11.4936 21.273ZM41.4816 29.515C41.3158 29.8353 41.2691 30.2041 41.3497 30.5556C41.4303 30.9071 41.633 31.2186 41.9218 31.4347C42.2106 31.6507 42.5667 31.7572 42.9267 31.7353C43.2866 31.7134 43.6272 31.5645 43.8876 31.315C43.9627 31.233 44.0297 31.1439 44.0876 31.049C44.6355 30.0859 45.0892 29.0722 45.4426 28.022C45.5448 27.6766 45.5213 27.3061 45.3762 26.9763C45.231 26.6466 44.9737 26.379 44.6499 26.221C44.3261 26.0631 43.9568 26.025 43.6076 26.1137C43.2584 26.2023 42.9519 26.4118 42.7426 26.705C42.6805 26.8059 42.6296 26.9132 42.5906 27.025C42.3 27.8892 41.929 28.7241 41.4826 29.519L41.4816 29.515ZM43.8236 21.498C43.8092 21.8623 43.9259 22.2196 44.1526 22.5051C44.3792 22.7906 44.7007 22.9853 45.0587 23.054C45.4167 23.1226 45.7875 23.0605 46.1036 22.8791C46.4197 22.6976 46.6603 22.4088 46.7816 22.065C46.81 21.9671 46.8291 21.8666 46.8386 21.765C46.9184 20.6618 46.903 19.5537 46.7926 18.453C46.7464 18.1064 46.5824 17.7863 46.3281 17.5463C46.0737 17.3064 45.7446 17.1613 45.3959 17.1353C45.0471 17.1094 44.7001 17.2043 44.4131 17.404C44.1261 17.6037 43.9165 17.8961 43.8196 18.232C43.7782 18.4078 43.7654 18.5892 43.7816 18.769C43.8754 19.6757 43.8894 20.5889 43.8236 21.498ZM42.3316 13.419C42.5239 13.7394 42.8273 13.9778 43.1839 14.089C43.5406 14.2003 43.9257 14.1765 44.266 14.0223C44.6063 13.8681 44.8781 13.5941 45.0295 13.2526C45.181 12.9111 45.2017 12.5258 45.0876 12.17C44.6355 11.1738 44.1003 10.2174 43.4876 9.31105C43.3876 9.12162 43.2488 8.95541 43.0803 8.82327C42.9117 8.69114 42.7171 8.59604 42.5093 8.5442C42.3015 8.49236 42.0851 8.48493 41.8742 8.52241C41.6633 8.55989 41.4627 8.64144 41.2855 8.76171C41.1082 8.88199 40.9584 9.0383 40.8456 9.22043C40.7329 9.40256 40.6599 9.60642 40.6313 9.81869C40.6027 10.031 40.6192 10.2469 40.6798 10.4523C40.7403 10.6578 40.8435 10.8482 40.9826 11.011C41.4978 11.7737 41.9487 12.5778 42.3306 13.415L42.3316 13.419ZM37.1726 6.99805C37.4936 7.23173 37.8936 7.32987 38.2863 7.2713C38.679 7.21273 39.0329 7.00215 39.2718 6.68497C39.5106 6.36779 39.6152 5.96945 39.563 5.57586C39.5107 5.18226 39.3059 4.82497 38.9926 4.58105C38.118 3.92525 37.1924 3.34039 36.2246 2.83205C35.8938 2.66428 35.5129 2.62373 35.1541 2.71808C34.7954 2.81243 34.4837 3.03511 34.2782 3.34393C34.0727 3.65275 33.9876 4.02624 34.0391 4.39359C34.0906 4.76095 34.2751 5.09664 34.5576 5.33705C34.6413 5.40579 34.7317 5.46577 34.8276 5.51605C35.6478 5.94629 36.432 6.44189 37.1726 6.99805ZM29.5586 3.75305C29.9177 3.8053 30.2837 3.72761 30.5906 3.53398C30.8975 3.34035 31.1251 3.04351 31.2326 2.6969C31.3401 2.3503 31.3202 1.97672 31.1767 1.64344C31.0331 1.31016 30.7753 1.03909 30.4496 0.879047C30.3282 0.823501 30.2002 0.78384 30.0686 0.761047C28.9868 0.590996 27.8937 0.503078 26.7986 0.498047C26.3947 0.498047 26.0073 0.658505 25.7217 0.944123C25.4361 1.22974 25.2756 1.61712 25.2756 2.02105C25.2756 2.42497 25.4361 2.81235 25.7217 3.09797C26.0073 3.38359 26.3947 3.54405 26.7986 3.54405C27.7257 3.5514 28.6509 3.62761 29.5666 3.77205L29.5586 3.75305Z" fill="#270B79"/>
</svg>
