<svg width="47" height="46" viewBox="0 0 47 46" fill="none" xmlns="http://www.w3.org/2000/svg">
<path d="M17.3671 3.08829C17.0542 3.28239 16.8223 3.58324 16.7142 3.93514C16.6062 4.28703 16.6294 4.66615 16.7794 5.00229C16.9295 5.33843 17.1963 5.60884 17.5305 5.76344C17.8647 5.91805 18.2436 5.94638 18.5971 5.84319C19.4859 5.39757 20.3998 5.00373 21.3341 4.66366C21.6953 4.54011 21.9963 4.28469 22.177 3.94859C22.3577 3.61249 22.4045 3.22055 22.3083 2.85134C22.212 2.48213 21.9797 2.16293 21.6579 1.95772C21.3361 1.75251 20.9486 1.67647 20.5731 1.74483C19.4635 2.08261 18.3913 2.53277 17.3731 3.08829H17.3671ZM20.1621 23.1623V20.7992L23.7101 17.1767C23.9114 16.9788 24.1007 16.7692 24.2771 16.5489C24.4258 16.3755 24.5537 16.1853 24.6581 15.9822C24.7434 15.804 24.7875 15.6089 24.7871 15.4114C24.7951 15.2273 24.753 15.0446 24.6651 14.8826C24.5792 14.7393 24.4436 14.6326 24.2841 14.5827C24.0739 14.5156 23.8537 14.4848 23.6331 14.4918H20.3451V12.1297C20.8451 12.0157 21.4071 11.9128 22.0281 11.8138C22.7418 11.7112 23.4622 11.6628 24.1831 11.6689C24.9092 11.6387 25.6332 11.7677 26.3041 12.0467C26.794 12.2623 27.1881 12.6494 27.4121 13.1353C27.6464 13.6924 27.758 14.2935 27.7391 14.8976C27.745 15.3608 27.6775 15.822 27.5391 16.264C27.4054 16.6711 27.2116 17.0558 26.9641 17.4056C26.691 17.7891 26.3852 18.1483 26.0501 18.4792L24.0861 20.4884H28.0451V23.1523L20.1621 23.1623ZM33.8671 23.1623V21.0571H29.1311L28.6091 19.7517L31.9091 11.7598H34.9551L32.1551 18.5411H33.8721V16.8518L34.4391 15.3794H36.8491V18.5441H37.7701V20.5993L36.8491 21.0601V23.1623H33.8671ZM11.4931 21.518C12.874 24.0925 14.5781 26.4802 16.5641 28.6231C18.8799 31.0504 21.6005 33.0565 24.6041 34.5518C24.7099 34.6083 24.827 34.6407 24.9468 34.6466C25.0666 34.6525 25.1863 34.6317 25.2971 34.5858C25.6637 34.4207 25.9928 34.1826 26.2641 33.886C26.5777 33.5449 26.869 33.184 27.1361 32.8055C28.4271 31.1061 30.0261 29 32.2831 30.0536L32.4201 30.1255L39.9471 34.4528L40.0231 34.5018C40.4847 34.8333 40.8558 35.2751 41.1025 35.7869C41.3491 36.2987 41.4635 36.8642 41.4351 37.4316C41.3837 38.7468 41.0057 40.0285 40.3351 41.1611C39.5036 42.59 38.2325 43.712 36.7111 44.3599C35.2867 44.9716 33.7833 45.3801 32.2451 45.5734C29.9574 45.9074 27.6235 45.7122 25.4231 45.0026C23.0079 44.1931 20.7052 43.0807 18.5701 41.6919L18.3991 41.582C17.2801 40.8892 16.0771 40.1435 14.8991 39.2639C10.1886 35.7021 6.24501 31.2273 3.30413 26.1071C0.904126 21.7539 -0.411874 17.0537 0.304126 12.5785C0.591428 10.1857 1.76353 7.98687 3.59013 6.41397C4.51308 5.70538 5.56714 5.18629 6.69162 4.88658C7.81609 4.58688 8.98877 4.51248 10.1421 4.66766C10.2994 4.67743 10.4517 4.72671 10.5849 4.81092C10.7181 4.89514 10.8279 5.01158 10.9041 5.14947L15.7161 13.3082C16.0387 13.6761 16.2486 14.129 16.3207 14.6129C16.3929 15.0968 16.3243 15.5912 16.1231 16.0371C15.7001 16.8771 15.0634 17.591 14.2771 18.1073C14.0141 18.3322 13.7061 18.5521 13.3821 18.788C12.3051 19.5677 11.0751 20.4744 11.4981 21.5429V21.516L11.4931 21.518ZM41.4811 29.7567C41.3153 30.0768 41.2686 30.4454 41.3492 30.7968C41.4298 31.1482 41.6326 31.4596 41.9213 31.6755C42.2101 31.8915 42.5662 31.998 42.9262 31.9761C43.2861 31.9542 43.6267 31.8053 43.8871 31.556C43.9622 31.474 44.0292 31.3849 44.0871 31.2901C44.635 30.3273 45.0887 29.314 45.4421 28.2643C45.5444 27.9189 45.5208 27.5486 45.3757 27.219C45.2306 26.8894 44.9732 26.6218 44.6494 26.464C44.3256 26.3061 43.9563 26.2681 43.6071 26.3566C43.2579 26.4452 42.9514 26.6547 42.7421 26.9478C42.6801 27.0486 42.6291 27.1559 42.5901 27.2677C42.2995 28.1314 41.9286 28.9661 41.4821 29.7607L41.4811 29.7567ZM43.8231 21.7429C43.8087 22.107 43.9254 22.4641 44.1521 22.7495C44.3787 23.0349 44.7002 23.2296 45.0582 23.2982C45.4162 23.3668 45.787 23.3047 46.1031 23.1233C46.4192 22.942 46.6598 22.6532 46.7811 22.3096C46.8096 22.2117 46.8286 22.1113 46.8381 22.0098C46.9179 20.9069 46.9025 19.7993 46.7921 18.6991C46.746 18.3526 46.5819 18.0326 46.3276 17.7927C46.0732 17.5529 45.7441 17.4078 45.3954 17.3819C45.0467 17.356 44.6997 17.4508 44.4126 17.6504C44.1256 17.8501 43.916 18.1423 43.8191 18.4782C43.7777 18.6539 43.7649 18.8351 43.7811 19.0149C43.8749 19.9213 43.889 20.8341 43.8231 21.7429ZM42.3311 13.6671C42.5234 13.9873 42.8268 14.2256 43.1835 14.3368C43.5401 14.448 43.9252 14.4242 44.2655 14.2701C44.6058 14.1159 44.8776 13.8421 45.0291 13.5007C45.1805 13.1593 45.2012 12.7742 45.0871 12.4186C44.635 11.4227 44.0998 10.4667 43.4871 9.56071C43.3871 9.37136 43.2483 9.20522 43.0798 9.07313C42.9112 8.94105 42.7166 8.84599 42.5088 8.79417C42.301 8.74235 42.0846 8.73493 41.8737 8.7724C41.6628 8.80986 41.4622 8.89137 41.285 9.0116C41.1077 9.13183 40.9579 9.28807 40.8452 9.47013C40.7324 9.65219 40.6594 9.85597 40.6308 10.0682C40.6022 10.2803 40.6188 10.4962 40.6793 10.7016C40.7398 10.9069 40.843 11.0972 40.9821 11.26C41.4973 12.0223 41.9482 12.8261 42.3301 13.6631L42.3311 13.6671ZM37.1721 7.24863C37.4931 7.48222 37.8931 7.58032 38.2858 7.52178C38.6785 7.46323 39.0324 7.25273 39.2713 6.93568C39.5101 6.61863 39.6147 6.22044 39.5625 5.82701C39.5103 5.43357 39.3054 5.07642 38.9921 4.8326C38.1175 4.17706 37.1919 3.59243 36.2241 3.08429C35.8933 2.9166 35.5124 2.87606 35.1536 2.97037C34.7949 3.06468 34.4832 3.28728 34.2777 3.59597C34.0722 3.90467 33.9871 4.27801 34.0386 4.64522C34.0901 5.01243 34.2746 5.34799 34.5571 5.5883C34.6408 5.65701 34.7312 5.71697 34.8271 5.76722C35.6473 6.1973 36.4315 6.6927 37.1721 7.24863ZM29.5581 4.00493C29.9172 4.05715 30.2832 3.9795 30.5901 3.78595C30.897 3.5924 31.1247 3.29567 31.2321 2.9492C31.3396 2.60274 31.3197 2.2293 31.1762 1.89616C31.0326 1.56301 30.7748 1.29205 30.4491 1.13207C30.3277 1.07654 30.1997 1.0369 30.0681 1.01412C28.9863 0.844133 27.8932 0.75625 26.7981 0.751221C26.3942 0.751221 26.0068 0.911615 25.7212 1.19712C25.4356 1.48262 25.2751 1.86985 25.2751 2.27361C25.2751 2.67738 25.4356 3.06461 25.7212 3.35011C26.0068 3.63561 26.3942 3.79601 26.7981 3.79601C27.7252 3.80336 28.6504 3.87954 29.5661 4.02392L29.5581 4.00493Z" fill="#270B79"/>
</svg>
