<svg width="88" height="73" viewBox="0 0 88 73" fill="none" xmlns="http://www.w3.org/2000/svg">
<path opacity="0.1" d="M44 72.4043C68.3005 72.4043 88 56.3965 88 36.65C88 16.9035 68.3005 0.895752 44 0.895752C19.6995 0.895752 0 16.9035 0 36.65C0 56.3965 19.6995 72.4043 44 72.4043Z" fill="#EC642A"/>
<path d="M41.747 52.525C41.9037 52.5175 42.0607 52.5361 42.2082 52.5796C42.3558 52.6232 42.4908 52.6908 42.6051 52.7783C42.7193 52.8658 42.8103 52.9714 42.8725 53.0885C42.9348 53.2057 42.9668 53.3319 42.9668 53.4595C42.9668 53.587 42.9348 53.7133 42.8725 53.8304C42.8103 53.9475 42.7193 54.0531 42.6051 54.1406C42.4908 54.2281 42.3558 54.2957 42.2082 54.3393C42.0607 54.3829 41.9037 54.4015 41.747 54.3939H27.301C26.948 54.3943 26.5984 54.3379 26.2723 54.228C25.9462 54.1181 25.6501 53.9569 25.401 53.7536C25.1515 53.5526 24.9536 53.3133 24.8187 53.0497C24.6838 52.7861 24.6145 52.5033 24.615 52.2178V21.2896C24.6163 20.711 24.8997 20.1565 25.4032 19.7474C25.9066 19.3383 26.589 19.108 27.301 19.1069H60.279C60.991 19.108 61.6734 19.3383 62.1768 19.7474C62.6803 20.1565 62.9637 20.711 62.965 21.2896V36.7858C62.9742 36.9131 62.9514 37.0407 62.8977 37.1606C62.8441 37.2805 62.7609 37.3902 62.6532 37.4831C62.5455 37.5759 62.4156 37.6499 62.2715 37.7004C62.1273 37.751 61.972 37.777 61.815 37.777C61.658 37.777 61.5027 37.751 61.3585 37.7004C61.2144 37.6499 61.0845 37.5759 60.9768 37.4831C60.8691 37.3902 60.7859 37.2805 60.7322 37.1606C60.6786 37.0407 60.6557 36.9131 60.665 36.7858V21.2896C60.6651 21.2493 60.6551 21.2095 60.6357 21.1725C60.6162 21.1355 60.5878 21.102 60.552 21.0742C60.482 21.0164 60.3868 20.9834 60.287 20.9824H27.301C27.2005 20.9831 27.1043 21.0151 27.032 21.0718C26.9629 21.1309 26.9236 21.2089 26.922 21.2904V52.2178C26.9219 52.2581 26.9319 52.2979 26.9513 52.3349C26.9707 52.3719 26.9992 52.4053 27.035 52.4332C27.0702 52.4621 27.1121 52.4851 27.1582 52.5009C27.2044 52.5166 27.2539 52.5248 27.304 52.525H41.747ZM36.615 35.7424C36.5155 35.4856 36.5011 35.2121 36.573 34.9493C36.645 34.6866 36.8009 34.4439 37.025 34.2456C38.368 33.6077 40.225 33.806 41.514 33.0706C41.6039 32.9519 41.6831 32.8281 41.751 32.7001C41.868 32.4815 41.977 32.2434 42.044 32.08C41.7624 31.7974 41.5061 31.4986 41.277 31.1862L40.499 30.181C40.2527 29.9125 40.1001 29.595 40.057 29.262C40.0511 29.1486 40.0778 29.0356 40.135 28.932C40.1921 28.8281 40.2857 28.7402 40.404 28.6793C40.4619 28.646 40.5247 28.6187 40.591 28.5981C40.5349 27.996 40.5232 27.3917 40.556 26.7884C40.5759 26.6497 40.6094 26.5125 40.656 26.378C40.8719 25.8077 41.3404 25.3227 41.971 25.0169C42.312 24.8414 42.6825 24.7071 43.071 24.618C43.318 24.5603 42.859 23.9199 43.117 23.8972C44.354 23.794 46.351 24.7098 47.217 25.4679C47.6856 25.8972 47.9554 26.4457 47.98 27.0192L47.931 28.659C48.0319 28.68 48.1236 28.7233 48.196 28.7842C48.2683 28.845 48.3185 28.9209 48.341 29.0035C48.3854 29.3031 48.3096 29.6064 48.125 29.8682C48.1217 29.8755 48.117 29.8824 48.111 29.8885L47.224 31.0749C46.9241 31.516 46.5583 31.9254 46.135 32.2938C46.174 32.3401 46.216 32.3856 46.255 32.4319C46.4256 32.6476 46.6198 32.8505 46.835 33.0381C46.8422 33.0441 46.8482 33.051 46.853 33.0584C47.875 33.6443 50.359 33.7897 51.314 34.2188L51.353 34.2359C51.5838 34.4301 51.7447 34.672 51.8183 34.9353C51.8918 35.1986 51.8751 35.4733 51.77 35.7294H36.615V35.7424ZM60.774 41.8085C60.6892 41.7389 60.5878 41.6841 60.476 41.6475C60.3643 41.6109 60.2445 41.5932 60.124 41.5955C60.0039 41.5962 59.8853 41.6172 59.7758 41.6572C59.6663 41.6972 59.5683 41.7554 59.488 41.828L58.056 43.0403L62.075 46.194L63.515 44.9711C63.6749 44.8266 63.7611 44.638 63.7559 44.4437C63.7507 44.2494 63.6545 44.064 63.487 43.9253L60.769 41.8085H60.774ZM54.497 52.4738C53.967 52.6119 53.437 52.7525 52.91 52.8931L51.323 53.3238C50.075 53.6569 49.375 53.8408 49.223 53.8755C49.082 53.9096 49.163 53.4359 49.481 52.4421L50.474 49.3315L56.774 44.1097L60.789 47.2488L54.489 52.473L54.497 52.4738ZM35.834 46.4963C35.5237 46.4963 35.2261 46.3962 35.0067 46.2179C34.7873 46.0396 34.664 45.7977 34.664 45.5456C34.664 45.2934 34.7873 45.0516 35.0067 44.8733C35.2261 44.695 35.5237 44.5948 35.834 44.5948H43.684C43.9943 44.5948 44.2919 44.695 44.5113 44.8733C44.7307 45.0516 44.854 45.2934 44.854 45.5456C44.854 45.7977 44.7307 46.0396 44.5113 46.2179C44.2919 46.3962 43.9943 46.4963 43.684 46.4963H35.834ZM35.834 40.5538C35.5279 40.5538 35.2344 40.455 35.018 40.2791C34.8016 40.1033 34.68 39.8648 34.68 39.6161C34.68 39.3674 34.8016 39.1288 35.018 38.953C35.2344 38.7771 35.5279 38.6783 35.834 38.6783H51.404C51.7101 38.6783 52.0036 38.7771 52.22 38.953C52.4364 39.1288 52.558 39.3674 52.558 39.6161C52.558 39.8648 52.4364 40.1033 52.22 40.2791C52.0036 40.455 51.7101 40.5538 51.404 40.5538H35.834Z" fill="#EC642A"/>
</svg>
