<svg width="28" height="29" viewBox="0 0 28 29" fill="none" xmlns="http://www.w3.org/2000/svg">
<path d="M14 27.3462C21.3178 27.3462 27.25 21.414 27.25 14.0962C27.25 6.77842 21.3178 0.846191 14 0.846191C6.68223 0.846191 0.75 6.77842 0.75 14.0962C0.75 21.414 6.68223 27.3462 14 27.3462Z" stroke="black" stroke-width="1.5"/>
<path d="M15.581 13.6232L15.581 7.48836C15.5928 7.33722 15.5732 7.18527 15.5235 7.04205C15.4738 6.89883 15.395 6.76744 15.2921 6.65611C15.1892 6.54479 15.0644 6.45594 14.9255 6.39514C14.7866 6.33434 14.6367 6.30291 14.4851 6.30281C14.3335 6.30271 14.1835 6.33395 14.0445 6.39457C13.9056 6.45519 13.7806 6.54388 13.6776 6.65507C13.5745 6.76626 13.4956 6.89756 13.4457 7.04071C13.3958 7.18387 13.376 7.33579 13.3876 7.48695L13.3876 13.6218L7.25273 13.6218C6.97465 13.6409 6.71418 13.7647 6.52394 13.9685C6.3337 14.1722 6.22789 14.4405 6.22789 14.7192C6.22789 14.998 6.3337 15.2663 6.52394 15.47C6.71418 15.6737 6.97465 15.7976 7.25273 15.8167L13.3876 15.8167L13.3876 21.9515C13.376 22.1027 13.3958 22.2546 13.4457 22.3978C13.4956 22.5409 13.5745 22.6722 13.6776 22.7834C13.7806 22.8946 13.9056 22.9833 14.0445 23.0439C14.1835 23.1045 14.3335 23.1358 14.4851 23.1357C14.6367 23.1356 14.7866 23.1041 14.9255 23.0433C15.0644 22.9825 15.1892 22.8937 15.2921 22.7824C15.395 22.671 15.4738 22.5396 15.5235 22.3964C15.5732 22.2532 15.5928 22.1013 15.581 21.9501L15.5832 15.8174L21.7159 15.8153C21.9904 15.7918 22.2462 15.6662 22.4326 15.4632C22.6189 15.2603 22.7224 14.9948 22.7224 14.7192C22.7224 14.4437 22.6189 14.1782 22.4326 13.9752C22.2462 13.7723 21.9904 13.6467 21.7159 13.6232H15.581Z" fill="black"/>
</svg>
