<svg width="34" height="33" viewBox="0 0 34 33" fill="none" xmlns="http://www.w3.org/2000/svg">
<path d="M17.703 0.5H17.005C8.41864 0.5 1.45801 7.46063 1.45801 16.047C1.45801 24.6334 8.41864 31.594 17.005 31.594H17.703C26.2894 31.594 33.25 24.6334 33.25 16.047C33.25 7.46063 26.2894 0.5 17.703 0.5Z" stroke="white"/>
<path d="M13.7625 22.0858V13.6118H10.9465V22.0848L13.7625 22.0858ZM12.3555 12.4548C12.5567 12.4709 12.7591 12.4453 12.95 12.3796C13.1409 12.314 13.3162 12.2096 13.4649 12.0731C13.6136 11.9366 13.7326 11.7709 13.8144 11.5864C13.8963 11.4018 13.9391 11.2024 13.9404 11.0005C13.9416 10.7987 13.9012 10.5987 13.8217 10.4131C13.7421 10.2276 13.6252 10.0605 13.4781 9.92215C13.3311 9.78384 13.1571 9.67735 12.967 9.60933C12.7769 9.54132 12.5749 9.51323 12.3735 9.52683C12.1724 9.50963 11.97 9.53405 11.7788 9.59857C11.5877 9.66309 11.4118 9.76633 11.2623 9.90184C11.1129 10.0374 10.9929 10.2022 10.91 10.3862C10.8271 10.5701 10.7829 10.7692 10.7804 10.9709C10.7778 11.1727 10.8169 11.3728 10.8952 11.5588C10.9734 11.7448 11.0892 11.9126 11.2352 12.0519C11.3812 12.1911 11.5544 12.2988 11.7438 12.3681C11.9333 12.4374 12.1351 12.467 12.3365 12.4548H12.3545H12.3555ZM15.3225 22.0858H18.1385V17.3538C18.1274 17.1212 18.1586 16.8884 18.2305 16.6668C18.3362 16.3664 18.5324 16.1061 18.792 15.9217C19.0516 15.7373 19.362 15.6378 19.6805 15.6368C20.6995 15.6368 21.1075 16.4138 21.1075 17.5528V22.0858H23.9235V17.2268C23.9235 14.6268 22.5335 13.4128 20.6805 13.4128C20.1633 13.3909 19.6502 13.5127 19.1981 13.7648C18.746 14.0169 18.3726 14.3893 18.1195 14.8408H18.1385V13.6118H15.3225C15.3595 14.4118 15.3225 22.0848 15.3225 22.0848V22.0858Z" fill="white"/>
</svg>
