<svg width="34" height="33" viewBox="0 0 34 33" fill="none" xmlns="http://www.w3.org/2000/svg">
<path d="M17.702 1.36108H17.004C8.41766 1.36108 1.45703 8.31894 1.45703 16.9019C1.45703 25.4849 8.41766 32.4427 17.004 32.4427H17.702C26.2884 32.4427 33.249 25.4849 33.249 16.9019C33.249 8.31894 26.2884 1.36108 17.702 1.36108Z" stroke="white"/>
<path d="M13.7615 22.938V14.4674H10.9455V22.937L13.7615 22.938ZM12.3545 13.3108C12.5557 13.3269 12.7581 13.3013 12.949 13.2357C13.1399 13.17 13.3152 13.0657 13.4639 12.9293C13.6127 12.7929 13.7317 12.6272 13.8135 12.4427C13.8953 12.2583 13.9381 12.0589 13.9394 11.8571C13.9406 11.6553 13.9002 11.4554 13.8207 11.27C13.7412 11.0845 13.6242 10.9174 13.4772 10.7792C13.3301 10.6409 13.1561 10.5345 12.966 10.4665C12.776 10.3985 12.5739 10.3704 12.3725 10.384C12.1715 10.3668 11.969 10.3912 11.7779 10.4557C11.5867 10.5202 11.4109 10.6234 11.2614 10.7589C11.1119 10.8943 10.9919 11.0591 10.909 11.243C10.8261 11.4269 10.782 11.6259 10.7794 11.8275C10.7769 12.0292 10.8159 12.2292 10.8942 12.4152C10.9724 12.6011 11.0882 12.7688 11.2342 12.908C11.3802 13.0472 11.5534 13.1548 11.7429 13.2241C11.9323 13.2934 12.1341 13.323 12.3355 13.3108H12.3535H12.3545ZM15.3215 22.938H18.1375V18.2079C18.1264 17.9753 18.1576 17.7426 18.2295 17.5212C18.3352 17.2209 18.5314 16.9607 18.791 16.7763C19.0507 16.592 19.361 16.4925 19.6795 16.4916C20.6985 16.4916 21.1065 17.2683 21.1065 18.4068V22.938H23.9225V18.0809C23.9225 15.482 22.5325 14.2685 20.6795 14.2685C20.1623 14.2465 19.6492 14.3683 19.1971 14.6203C18.745 14.8723 18.3717 15.2446 18.1185 15.6959H18.1375V14.4674H15.3215C15.3585 15.2671 15.3215 22.937 15.3215 22.937V22.938Z" fill="white"/>
</svg>
