<svg width="33" height="33" viewBox="0 0 33 33" fill="none" xmlns="http://www.w3.org/2000/svg">
<path d="M31.6882 16.047C31.6882 7.46063 24.7276 0.5 16.1412 0.5C7.55487 0.5 0.594238 7.46063 0.594238 16.047C0.594238 24.6334 7.55487 31.594 16.1412 31.594C24.7276 31.594 31.6882 24.6334 31.6882 16.047Z" stroke="white"/>
<path d="M17.4623 23.1831H14.8083V16.6651H12.5913V14.1121H14.8083V12.2311C14.7792 11.7765 14.8448 11.3209 15.0009 10.8929C15.1571 10.465 15.4003 10.0742 15.7153 9.74512C16.0407 9.4468 16.4221 9.21595 16.8373 9.06593C17.2525 8.91592 17.6933 8.8497 18.1343 8.87112C18.7964 8.86306 19.4584 8.89646 20.1163 8.97112V11.2221L18.7383 11.2551C18.5587 11.2334 18.3766 11.2489 18.2032 11.3005C18.0298 11.3521 17.8688 11.4388 17.7303 11.5551C17.5324 11.8142 17.4367 12.137 17.4613 12.4621V14.1111H20.0153L19.6793 16.6651H17.4623V23.1831Z" fill="white"/>
</svg>
