<svg width="28" height="29" viewBox="0 0 28 29" fill="none" xmlns="http://www.w3.org/2000/svg">
<path d="M14 27.3462C21.3178 27.3462 27.25 21.414 27.25 14.0962C27.25 6.77842 21.3178 0.846191 14 0.846191C6.68223 0.846191 0.75 6.77842 0.75 14.0962C0.75 21.414 6.68223 27.3462 14 27.3462Z" stroke="black" stroke-width="1.5"/>
<path d="M15.5812 13.623L13.3878 13.6216L7.25294 13.6216C6.97487 13.6406 6.71439 13.7645 6.52415 13.9682C6.33391 14.1719 6.2281 14.4403 6.2281 14.719C6.2281 14.9977 6.33391 15.2661 6.52415 15.4698C6.71439 15.6735 6.97487 15.7974 7.25294 15.8164L13.3878 15.8164L15.5834 15.8171L21.7161 15.815C21.9907 15.7916 22.2464 15.666 22.4328 15.463C22.6192 15.26 22.7226 14.9945 22.7226 14.719C22.7226 14.4434 22.6192 14.1779 22.4328 13.975C22.2464 13.772 21.9907 13.6464 21.7161 13.623H15.5812Z" fill="black"/>
</svg>
