<svg width="88" height="73" viewBox="0 0 88 73" fill="none" xmlns="http://www.w3.org/2000/svg">
<path opacity="0.1" d="M44 72.2353C68.3005 72.2353 88 56.2276 88 36.4811C88 16.7345 68.3005 0.726807 44 0.726807C19.6995 0.726807 0 16.7345 0 36.4811C0 56.2276 19.6995 72.2353 44 72.2353Z" fill="#EC642A"/>
<path fill-rule="evenodd" clip-rule="evenodd" d="M50.4749 43.8971C48.8295 45.372 46.9326 46.6477 44.8419 47.6854C44.7126 47.7632 44.5572 47.8072 44.3964 47.8114C44.2356 47.8156 44.0771 47.7799 43.9419 47.709C40.9653 46.1802 38.3222 44.2598 36.1209 42.0265C33.4085 39.366 31.5861 36.1822 30.8299 32.7824C30.1261 29.8085 30.7992 26.7282 32.7199 24.1331C33.507 23.1365 34.4924 22.2531 35.6359 21.519C38.1431 19.81 41.3016 18.8598 44.5739 18.8301C47.7268 18.8733 50.7449 19.8767 53.0309 21.6417C53.9109 22.2971 54.6722 23.0505 55.2919 23.8796C57.3659 26.6578 57.8139 30.2016 56.9019 33.7932C55.8917 37.5633 53.6687 41.0482 50.4599 43.8922L50.4749 43.8971ZM30.7199 41.2951C30.8991 41.2871 31.0784 41.3089 31.2469 41.3591C31.4154 41.4093 31.5695 41.4868 31.6999 41.5871C31.8302 41.6873 31.934 41.8081 32.005 41.9421C32.076 42.076 32.1125 42.2203 32.1125 42.3661C32.1125 42.512 32.076 42.6563 32.005 42.7902C31.934 42.9242 31.8302 43.0449 31.6999 43.1452C31.5695 43.2454 31.4154 43.323 31.2469 43.3732C31.0784 43.4234 30.8991 43.4452 30.7199 43.4371H28.2419L24.9799 51.9938H62.9289L59.3879 43.4282H57.3399C57.1607 43.4362 56.9814 43.4145 56.8129 43.3643C56.6444 43.3141 56.4903 43.2365 56.3599 43.1362C56.2296 43.036 56.1258 42.9152 56.0548 42.7813C55.9839 42.6473 55.9473 42.503 55.9473 42.3572C55.9473 42.2114 55.9839 42.0671 56.0548 41.9331C56.1258 41.7992 56.2296 41.6784 56.3599 41.5781C56.4903 41.4779 56.6444 41.4003 56.8129 41.3501C56.9814 41.2999 57.1607 41.2782 57.3399 41.2862H61.2739L66.5909 54.1333H21.4099L26.3099 41.2862L30.7199 41.2951ZM43.9779 23.8909L36.1499 29.9261L37.9879 30.7151L43.9259 25.8688L49.9519 30.7151L51.7899 29.9261L43.9779 23.8909ZM38.6499 31.5757L43.9849 27.2405L49.3049 31.5757V35.8304H45.4199V32.8425H42.5039V35.8304H38.6509L38.6499 31.5757Z" fill="#EC642A"/>
</svg>
