<svg width="33" height="33" viewBox="0 0 33 33" fill="none" xmlns="http://www.w3.org/2000/svg">
<path d="M31.6194 16.9019C31.6194 8.31894 24.6588 1.36108 16.0724 1.36108C7.48602 1.36108 0.525391 8.31894 0.525391 16.9019C0.525391 25.4849 7.48602 32.4427 16.0724 32.4427C24.6588 32.4427 31.6194 25.4849 31.6194 16.9019Z" stroke="white"/>
<path fill-rule="evenodd" clip-rule="evenodd" d="M16.4651 9.44751C14.3651 9.44751 14.1061 9.45651 13.2831 9.49349C12.643 9.50666 12.0097 9.62799 11.4101 9.85235C10.8969 10.0502 10.4309 10.3532 10.0421 10.742C9.65317 11.1307 9.35 11.5965 9.15207 12.1095C8.92762 12.7088 8.80624 13.3418 8.79307 13.9817C8.75507 14.8044 8.74707 15.0673 8.74707 17.1624C8.74707 19.2576 8.75507 19.5205 8.79307 20.3432C8.80624 20.983 8.92762 21.616 9.15207 22.2154C9.35001 22.7281 9.65308 23.1936 10.0418 23.5822C10.4305 23.9707 10.8962 24.2737 11.4091 24.4715C12.0087 24.6959 12.642 24.8172 13.2821 24.8304C14.1061 24.8674 14.3681 24.8764 16.4641 24.8764C18.5601 24.8764 18.8231 24.8674 19.6461 24.8304C20.2862 24.8172 20.9195 24.6959 21.5191 24.4715C22.0319 24.2737 22.4977 23.9707 22.8864 23.5822C23.2751 23.1936 23.5781 22.7281 23.7761 22.2154C24.0012 21.6162 24.1233 20.9831 24.1371 20.3432C24.1741 19.5195 24.1831 19.2576 24.1831 17.1624C24.1831 15.0673 24.1741 14.8044 24.1371 13.9817C24.1239 13.3418 24.0025 12.7088 23.7781 12.1095C23.5801 11.5968 23.2771 11.1313 22.8884 10.7427C22.4997 10.3542 22.0339 10.0512 21.5211 9.85335C20.9212 9.62854 20.2876 9.50687 19.6471 9.49349C18.8241 9.45651 18.5611 9.44751 16.4651 9.44751ZM16.4651 10.838C18.5261 10.838 18.7651 10.846 19.5831 10.8829C20.0726 10.8884 20.5577 10.9776 21.0171 11.1468C21.35 11.2751 21.6524 11.4717 21.9047 11.7239C22.157 11.9762 22.3537 12.2784 22.4821 12.6113C22.6518 13.0707 22.7414 13.5559 22.7471 14.0457C22.7841 14.8594 22.7921 15.1023 22.7921 17.1634C22.7921 19.2246 22.7841 19.4625 22.7471 20.2802C22.7409 20.7696 22.6513 21.2543 22.4821 21.7136C22.3537 22.0464 22.157 22.3487 21.9047 22.6009C21.6524 22.8532 21.35 23.0497 21.0171 23.178C20.558 23.3471 20.0733 23.4364 19.5841 23.4419C18.7711 23.4789 18.5271 23.4869 16.4651 23.4869C14.4031 23.4869 14.1601 23.4789 13.3471 23.4419C12.8575 23.4358 12.3725 23.3462 11.9131 23.177C11.5799 23.0489 11.2774 22.8523 11.0249 22.6001C10.7724 22.3479 10.5755 22.0455 10.4471 21.7126C10.2772 21.2539 10.1875 20.7693 10.1821 20.2802C10.1451 19.4665 10.1371 19.2236 10.1371 17.1624C10.1371 15.1013 10.1451 14.8634 10.1821 14.0457C10.1878 13.5562 10.2775 13.0714 10.4471 12.6122C10.5754 12.2791 10.7722 11.9766 11.0247 11.7242C11.2772 11.4718 11.5798 11.2751 11.9131 11.1468C12.3724 10.9772 12.8575 10.888 13.3471 10.8829C14.1611 10.846 14.4031 10.838 16.4651 10.838ZM16.4661 19.7344C15.9574 19.7344 15.4601 19.5836 15.0371 19.3011C14.6142 19.0186 14.2845 18.6171 14.0899 18.1473C13.8952 17.6775 13.8442 17.1606 13.9435 16.6619C14.0427 16.1631 14.2877 15.705 14.6474 15.3455C15.0071 14.9859 15.4654 14.7411 15.9643 14.6419C16.4632 14.5427 16.9804 14.5936 17.4503 14.7882C17.9203 14.9828 18.322 15.3123 18.6046 15.7351C18.8872 16.1579 19.0381 16.6549 19.0381 17.1634C19.0381 17.8453 18.7671 18.4992 18.2847 18.9814C17.8024 19.4635 17.1482 19.7344 16.4661 19.7344ZM16.4661 13.201C15.6823 13.201 14.9161 13.4333 14.2643 13.8686C13.6126 14.3039 13.1047 14.9226 12.8047 15.6465C12.5048 16.3703 12.4263 17.1668 12.5792 17.9353C12.7321 18.7037 13.1096 19.4096 13.6638 19.9636C14.218 20.5176 14.9242 20.8949 15.6929 21.0477C16.4617 21.2006 17.2585 21.1221 17.9826 20.8223C18.7068 20.5225 19.3257 20.0147 19.7612 19.3633C20.1966 18.7118 20.4291 17.9459 20.4291 17.1624C20.4291 16.1118 20.0115 15.1042 19.2683 14.3613C18.5251 13.6184 17.5171 13.201 16.4661 13.201ZM21.5111 13.0461C21.5111 13.2291 21.4568 13.4081 21.355 13.5603C21.2533 13.7126 21.1086 13.8312 20.9394 13.9012C20.7702 13.9713 20.584 13.9896 20.4044 13.9539C20.2248 13.9182 20.0598 13.83 19.9303 13.7006C19.8008 13.5711 19.7126 13.4062 19.6769 13.2267C19.6411 13.0471 19.6595 12.861 19.7296 12.6919C19.7996 12.5227 19.9183 12.3782 20.0706 12.2764C20.2229 12.1747 20.4019 12.1204 20.5851 12.1204C20.8307 12.1204 21.0662 12.218 21.2399 12.3916C21.4135 12.5651 21.5111 12.8006 21.5111 13.0461Z" fill="white"/>
</svg>
