<svg width="28" height="24" viewBox="0 0 28 24" fill="none" xmlns="http://www.w3.org/2000/svg">
<path d="M28 11.6779C28 5.39488 21.732 0.301514 14 0.301514C6.26801 0.301514 0 5.39488 0 11.6779C0 17.9609 6.26801 23.0542 14 23.0542C21.732 23.0542 28 17.9609 28 11.6779Z" fill="#EC642A"/>
<path d="M27.5 11.6779C27.5 5.61927 21.4558 0.70781 14 0.70781C6.54416 0.70781 0.5 5.61927 0.5 11.6779C0.5 17.7365 6.54416 22.6479 14 22.6479C21.4558 22.6479 27.5 17.7365 27.5 11.6779Z" stroke="#EC642A"/>
<path d="M17.7349 11.4788C17.7352 11.5958 17.7069 11.7118 17.6516 11.8199C17.5963 11.928 17.5152 12.0261 17.4129 12.1085L11.5649 16.8606C11.4663 16.9542 11.3449 17.0302 11.2085 17.0838C11.072 17.1375 10.9233 17.1676 10.7719 17.1724C10.6204 17.1771 10.4693 17.1564 10.3281 17.1115C10.187 17.0665 10.0588 16.9984 9.95158 16.9112C9.84438 16.8241 9.76049 16.72 9.70519 16.6053C9.64989 16.4906 9.62436 16.3678 9.63021 16.2447C9.63607 16.1216 9.67317 16.0008 9.73919 15.8899C9.80522 15.779 9.89874 15.6804 10.0139 15.6003L15.0869 11.478L10.0139 7.35567C9.89874 7.27554 9.80522 7.17693 9.73919 7.06603C9.67317 6.95513 9.63607 6.83435 9.63021 6.71124C9.62436 6.58814 9.64989 6.46539 9.70519 6.35068C9.76049 6.23598 9.84438 6.1318 9.95158 6.04469C10.0588 5.95758 10.187 5.88942 10.3281 5.84448C10.4693 5.79954 10.6204 5.7788 10.7719 5.78355C10.9233 5.78831 11.072 5.81846 11.2085 5.87211C11.3449 5.92576 11.4663 6.00176 11.5649 6.09533L17.4129 10.8466C17.515 10.9296 17.596 11.0282 17.6513 11.1367C17.7065 11.2451 17.7349 11.3614 17.7349 11.4788Z" fill="white"/>
</svg>
