<svg width="88" height="73" viewBox="0 0 88 73" fill="none" xmlns="http://www.w3.org/2000/svg">
<path opacity="0.1" d="M44 72.2353C68.3005 72.2353 88 56.2276 88 36.4811C88 16.7345 68.3005 0.726807 44 0.726807C19.6995 0.726807 0 16.7345 0 36.4811C0 56.2276 19.6995 72.2353 44 72.2353Z" fill="#EC642A"/>
<path d="M59.7551 26.0559V48.7533H24.6881V52.0452H61.7761C62.3136 52.0449 62.8291 51.8713 63.2091 51.5625C63.5892 51.2536 63.8029 50.8348 63.8031 50.398V26.0559H59.7551ZM50.6601 25.6358L50.9961 27.7745C51.0455 28.0912 51.2476 28.379 51.5581 28.5746C51.8685 28.7702 52.2619 28.8576 52.6516 28.8175C53.0414 28.7774 53.3955 28.6131 53.6362 28.3609C53.8769 28.1086 53.9845 27.7889 53.9351 27.4722L53.0761 22.0546C53.0547 21.8697 52.9808 21.6914 52.8604 21.5336C52.7399 21.3757 52.5761 21.2427 52.3817 21.145C52.1874 21.0472 51.9679 20.9873 51.7403 20.9701C51.5128 20.9528 51.2834 20.9786 51.0701 21.0454L44.6491 23.0558C44.283 23.1707 43.9881 23.3992 43.8292 23.6909C43.6704 23.9825 43.6606 24.3136 43.8021 24.6111C43.9436 24.9086 44.2248 25.1482 44.5837 25.2773C44.9426 25.4064 45.35 25.4143 45.7161 25.2993L47.9081 24.6135C45.5867 27.1743 42.7514 29.3994 39.5211 31.1955C35.3658 33.5751 30.5158 35.0286 25.4541 35.4113C25.0674 35.4397 24.7097 35.5903 24.4581 35.8307C24.2065 36.0711 24.081 36.382 24.1085 36.6968C24.136 37.0116 24.3143 37.305 24.6052 37.5141C24.8961 37.7232 25.2763 37.8312 25.6641 37.815C31.2496 37.4061 36.6048 35.8116 41.1931 33.1913C44.8712 31.1443 48.076 28.586 50.6601 25.6341V25.6358ZM26.4631 43.4723V46.4252H31.0571V43.4723H26.4631ZM34.6761 40.3641V46.4252H39.2661V40.3641H34.6761ZM42.8851 38.2253V46.4252H47.4761V38.2253H42.8851ZM51.0941 34.9676V46.4252H55.6881V34.9676H51.0941Z" fill="#EC642A"/>
</svg>
