<svg width="33" height="33" viewBox="0 0 33 33" fill="none" xmlns="http://www.w3.org/2000/svg">
<path d="M31.6877 16.9019C31.6877 8.31894 24.7271 1.36108 16.1408 1.36108C7.55438 1.36108 0.59375 8.31894 0.59375 16.9019C0.59375 25.4849 7.55438 32.4427 16.1408 32.4427C24.7271 32.4427 31.6877 25.4849 31.6877 16.9019Z" stroke="white"/>
<path d="M17.4618 24.0348H14.8078V17.5194H12.5908V14.9675H14.8078V13.0872C14.7787 12.6328 14.8443 12.1773 15.0004 11.7496C15.1566 11.3218 15.3998 10.9311 15.7148 10.6022C16.0403 10.304 16.4216 10.0732 16.8368 9.92328C17.252 9.77332 17.6929 9.70713 18.1338 9.72854C18.7959 9.72048 19.4579 9.75387 20.1158 9.8285V12.0786L18.7378 12.1116C18.5582 12.0899 18.3761 12.1054 18.2027 12.1569C18.0293 12.2085 17.8683 12.2952 17.7298 12.4115C17.5319 12.6705 17.4362 12.9931 17.4608 13.3181V14.9665H20.0148L19.6788 17.5194H17.4618V24.0348Z" fill="white"/>
</svg>
