<svg width="28" height="24" viewBox="0 0 28 24" fill="none" xmlns="http://www.w3.org/2000/svg">
<path d="M28 11.6779C28 5.39488 21.732 0.301514 14 0.301514C6.26801 0.301514 0 5.39488 0 11.6779C0 17.9609 6.26801 23.0542 14 23.0542C21.732 23.0542 28 17.9609 28 11.6779Z" fill="#EC642A"/>
<path d="M27.5 11.6779C27.5 5.61927 21.4558 0.70781 14 0.70781C6.54416 0.70781 0.5 5.61927 0.5 11.6779C0.5 17.7365 6.54416 22.6479 14 22.6479C21.4558 22.6479 27.5 17.7365 27.5 11.6779Z" stroke="#EC642A"/>
<path d="M10.2649 11.4788C10.2646 11.5958 10.2929 11.7118 10.3482 11.8199C10.4034 11.928 10.4846 12.0261 10.5869 12.1085L16.4339 16.8606C16.6443 17.007 16.915 17.0836 17.1919 17.0749C17.4687 17.0662 17.7313 16.9729 17.9272 16.8137C18.1231 16.6545 18.2379 16.4411 18.2486 16.2162C18.2593 15.9912 18.1651 15.7713 17.9849 15.6003L12.9129 11.478L17.9849 7.35567C18.1 7.27553 18.1936 7.17693 18.2596 7.06603C18.3256 6.95513 18.3627 6.83434 18.3686 6.71124C18.3744 6.58814 18.3489 6.46539 18.2936 6.35068C18.2383 6.23598 18.1544 6.1318 18.0472 6.04469C17.94 5.95758 17.8118 5.88942 17.6707 5.84448C17.5295 5.79954 17.3784 5.7788 17.2269 5.78355C17.0754 5.78831 16.9268 5.81846 16.7903 5.87211C16.6539 5.92576 16.5325 6.00176 16.4339 6.09533L10.5869 10.8466C10.4848 10.9296 10.4038 11.0282 10.3485 11.1367C10.2933 11.2451 10.2648 11.3614 10.2649 11.4788Z" fill="white"/>
</svg>
