<svg width="42" height="42" viewBox="0 0 42 42" fill="none" xmlns="http://www.w3.org/2000/svg">
<path opacity="0.2" d="M21 41.7225C32.598 41.7225 42 32.4105 42 20.9236C42 9.43674 32.598 0.124771 21 0.124771C9.40202 0.124771 0 9.43674 0 20.9236C0 32.4105 9.40202 41.7225 21 41.7225Z" fill="#EC642A"/>
<path d="M24.888 14.5324C24.7301 14.376 24.6047 14.1904 24.5192 13.986C24.4337 13.7817 24.3897 13.5626 24.3897 13.3414C24.3897 13.1202 24.4337 12.9012 24.5192 12.6968C24.6047 12.4925 24.7301 12.3068 24.888 12.1504L26.091 10.8144L27.291 12.1504C27.449 12.3069 27.5743 12.4927 27.6598 12.6971C27.7453 12.9015 27.7893 13.1206 27.7893 13.3419C27.7893 13.5632 27.7453 13.7823 27.6598 13.9867C27.5743 14.1912 27.449 14.3769 27.291 14.5334C27.1331 14.6899 26.9455 14.814 26.7391 14.8987C26.5327 14.9833 26.3115 15.0269 26.088 15.0269C25.8646 15.0269 25.6434 14.9833 25.437 14.8987C25.2306 14.814 25.043 14.6899 24.885 14.5334L24.888 14.5324ZM21 15.0276C21.3357 15.0268 21.6635 14.9276 21.9423 14.7426C22.2211 14.5575 22.4384 14.2948 22.5667 13.9877C22.695 13.6805 22.7287 13.3426 22.6635 13.0166C22.5982 12.6905 22.437 12.3908 22.2 12.1554L21 10.8144L19.8 12.1504C19.5631 12.3859 19.4019 12.6855 19.3366 13.0116C19.2714 13.3377 19.305 13.6756 19.4334 13.9827C19.5617 14.2899 19.7789 14.5525 20.0577 14.7376C20.3365 14.9227 20.6644 15.0219 21 15.0227V15.0276ZM15.884 15.0276C16.2197 15.0268 16.5475 14.9276 16.8263 14.7426C17.1051 14.5575 17.3224 14.2948 17.4507 13.9877C17.579 13.6805 17.6127 13.3426 17.5475 13.0166C17.4822 12.6905 17.321 12.3908 17.084 12.1554L15.884 10.8144L14.684 12.1504C14.4471 12.3859 14.2859 12.6855 14.2206 13.0116C14.1554 13.3377 14.189 13.6756 14.3174 13.9827C14.4457 14.2899 14.6629 14.5525 14.9417 14.7376C15.2205 14.9227 15.5484 15.0219 15.884 15.0227V15.0276ZM30.356 26.2025V29.3471H28.656V31.0309H24.402V29.3471H17.602V31.0309H13.344V29.3471H11.644V26.2025C11.6462 24.6172 12.0074 23.0526 12.701 21.6238L14.281 18.3782C14.5259 17.8795 14.9072 17.4589 15.3815 17.1642C15.8558 16.8695 16.4041 16.7126 16.964 16.7113H25.036C25.5961 16.7124 26.1447 16.8692 26.6192 17.1639C27.0937 17.4586 27.4751 17.8793 27.72 18.3782L29.303 21.6238C29.9957 23.0528 30.3549 24.6174 30.356 26.2025ZM15.471 24.293C15.1326 24.293 14.8081 24.4262 14.5688 24.6632C14.3295 24.9002 14.195 25.2216 14.195 25.5568C14.195 25.7228 14.228 25.8871 14.2922 26.0404C14.3563 26.1937 14.4503 26.3331 14.5688 26.4504C14.6873 26.5678 14.8279 26.6609 14.9827 26.7244C15.1376 26.7879 15.3035 26.8206 15.471 26.8206C15.8089 26.8198 16.1327 26.6863 16.3714 26.4494C16.61 26.2125 16.744 25.8915 16.744 25.5568C16.744 25.2221 16.61 24.9011 16.3714 24.6642C16.1327 24.4273 15.8089 24.2938 15.471 24.293ZM26.534 21.7655L25.423 19.4766C25.3884 19.4051 25.334 19.3448 25.2663 19.3026C25.1985 19.2603 25.1201 19.2379 25.04 19.2379H16.964C16.884 19.2379 16.8056 19.2603 16.7378 19.3026C16.67 19.3448 16.6157 19.4051 16.581 19.4766L15.466 21.7655H26.534ZM26.528 24.293C26.1896 24.293 25.8651 24.4262 25.6258 24.6632C25.3865 24.9002 25.252 25.2216 25.252 25.5568C25.252 25.7228 25.285 25.8871 25.3492 26.0404C25.4133 26.1937 25.5073 26.3331 25.6258 26.4504C25.7443 26.5678 25.8849 26.6609 26.0397 26.7244C26.1946 26.7879 26.3605 26.8206 26.528 26.8206C26.8665 26.8206 27.191 26.6874 27.4303 26.4504C27.6696 26.2134 27.804 25.892 27.804 25.5568C27.804 25.2218 27.6697 24.9005 27.4307 24.6635C27.1916 24.4265 26.8673 24.2933 26.529 24.293H26.528Z" fill="#EC642A"/>
</svg>
