<svg width="88" height="73" viewBox="0 0 88 73" fill="none" xmlns="http://www.w3.org/2000/svg">
<path opacity="0.1" d="M44 72.4043C68.3005 72.4043 88 56.3965 88 36.65C88 16.9035 68.3005 0.895752 44 0.895752C19.6995 0.895752 0 16.9035 0 36.65C0 56.3965 19.6995 72.4043 44 72.4043Z" fill="#EC642A"/>
<path d="M43.5329 42.9565L29.5859 37.0026L25.8859 40.6333C30.8339 42.759 35.6859 44.8872 40.6359 47.026L43.5309 42.9735L43.5329 42.9565ZM32.6729 21.9029H32.7729C32.7695 21.5863 32.8463 21.2725 32.9985 20.981C33.1508 20.6895 33.3752 20.4266 33.6579 20.2086C33.9247 19.9802 34.2463 19.7985 34.6028 19.6748C34.9593 19.5511 35.3432 19.4881 35.7309 19.4895V19.4196C35.3428 19.4212 34.9586 19.3579 34.6019 19.2336C34.2453 19.1093 33.9239 18.9267 33.6579 18.6972C33.3773 18.48 33.154 18.2186 33.0017 17.929C32.8494 17.6394 32.7712 17.3276 32.7719 17.0127H32.6719C32.6737 17.3277 32.5961 17.6396 32.4438 17.9294C32.2916 18.2191 32.0681 18.4804 31.7869 18.6972C31.5199 18.9267 31.1978 19.1092 30.8406 19.2335C30.4833 19.3577 30.0985 19.4211 29.7099 19.4196V19.496C30.0975 19.494 30.4815 19.5562 30.8386 19.6787C31.1957 19.8012 31.5183 19.9815 31.7869 20.2086C32.0681 20.4255 32.2916 20.6868 32.4438 20.9765C32.5961 21.2662 32.6737 21.5782 32.6719 21.8932L32.6729 21.9029ZM28.9489 25.7636H29.0279C29.03 25.501 29.0977 25.2416 29.2267 25.0009C29.3558 24.7603 29.5437 24.5434 29.7789 24.3634C30.0034 24.1716 30.2737 24.0189 30.5731 23.9147C30.8726 23.8105 31.1951 23.7569 31.5209 23.7572V23.6931C31.195 23.6933 30.8725 23.6396 30.573 23.5352C30.2735 23.4308 30.0033 23.278 29.7789 23.086C29.5431 22.9034 29.3555 22.6836 29.2276 22.4401C29.0996 22.1966 29.0341 21.9344 29.0349 21.6697H28.9559C28.9562 21.9348 28.8897 22.1971 28.7605 22.4406C28.6314 22.684 28.4423 22.9034 28.2049 23.0852C27.9819 23.2779 27.7123 23.4309 27.4131 23.5348C27.1138 23.6387 26.7913 23.6912 26.4659 23.689V23.7572C26.7914 23.7568 27.1135 23.8104 27.4126 23.9148C27.7116 24.0192 27.9812 24.1721 28.2049 24.3643C28.4416 24.5464 28.6299 24.7659 28.7584 25.0093C28.8868 25.2527 28.9527 25.5149 28.9519 25.7798L28.9489 25.7636ZM55.9319 21.9281H55.8569C55.8579 21.6129 55.7796 21.3008 55.6267 21.0112C55.4738 20.7215 55.2496 20.4603 54.9679 20.2436C54.701 20.0151 54.3795 19.8334 54.0229 19.7097C53.6664 19.5861 53.2825 19.523 52.8949 19.5244V19.4326C53.2829 19.4342 53.6672 19.3709 54.0239 19.2466C54.3805 19.1223 54.7018 18.9398 54.9679 18.7102C55.2508 18.4916 55.4757 18.2281 55.6285 17.9362C55.7814 17.6443 55.8591 17.33 55.8569 17.0127H55.9509C55.9489 17.328 56.0268 17.6403 56.1798 17.9301C56.3327 18.2199 56.5574 18.481 56.8399 18.6972C57.1059 18.9267 57.4273 19.1093 57.7839 19.2336C58.1406 19.3579 58.5248 19.4212 58.9129 19.4196V19.496C58.525 19.4952 58.141 19.5588 57.7845 19.6831C57.428 19.8073 57.1065 19.9895 56.8399 20.2184C56.5574 20.4346 56.3327 20.6957 56.1798 20.9855C56.0268 21.2753 55.9489 21.5876 55.9509 21.9029L55.9319 21.9281ZM59.6649 25.575H59.5899C59.5739 25.0962 59.3323 24.6406 58.9149 24.3023C58.4975 23.9641 57.9362 23.7689 57.3469 23.7572V23.6931C57.6412 23.6945 57.9328 23.6467 58.2034 23.5526C58.4741 23.4586 58.7179 23.3202 58.9199 23.1462C59.1337 22.9818 59.3037 22.7836 59.4194 22.5638C59.5352 22.3439 59.5942 22.1071 59.5929 21.868H59.6679C59.6667 22.1068 59.7254 22.3433 59.8404 22.563C59.9554 22.7828 60.1244 22.9812 60.3369 23.1462C60.5399 23.3189 60.784 23.4561 61.0545 23.5496C61.3249 23.6431 61.616 23.6908 61.9099 23.6898V23.7507C61.32 23.7621 60.7583 23.9578 60.3415 24.2971C59.9247 24.6365 59.6848 25.0933 59.6719 25.5726L59.6649 25.575ZM44.4889 20.5288L47.1319 25.545L53.8379 26.0325C53.943 26.0376 54.0438 26.0682 54.1273 26.1203C54.2108 26.1724 54.2731 26.2437 54.3061 26.325C54.3392 26.4062 54.3415 26.4936 54.3128 26.5759C54.284 26.6582 54.2255 26.7316 54.1449 26.7866L49.0669 30.3921L50.5669 35.7235C50.5708 35.7554 50.5708 35.7876 50.5669 35.8194C50.5679 35.9184 50.527 36.0146 50.4511 36.092C50.3752 36.1694 50.2688 36.2232 50.1499 36.2444H50.0349C49.9286 36.2447 49.8245 36.2201 49.7349 36.1737L43.9839 33.3898L38.2049 36.19C38.1443 36.2199 38.0771 36.2398 38.007 36.2485C37.9369 36.2571 37.8655 36.2544 37.7967 36.2404C37.7279 36.2264 37.6633 36.2015 37.6065 36.167C37.5497 36.1325 37.5019 36.0893 37.4659 36.0397C37.4157 35.9723 37.3897 35.8949 37.3909 35.8162C37.387 35.7832 37.387 35.75 37.3909 35.717L38.8909 30.3856L33.8299 26.7964C33.7461 26.7407 33.6856 26.6654 33.6568 26.5807C33.6279 26.4959 33.6321 26.406 33.6687 26.3233C33.7053 26.2406 33.7726 26.1692 33.8613 26.1188C33.95 26.0685 34.0557 26.0418 34.1639 26.0423L40.8509 25.5547L43.4899 20.5272C43.5328 20.4485 43.6029 20.3817 43.6917 20.3348C43.7804 20.2879 43.884 20.2629 43.9899 20.2629C44.0958 20.2629 44.1994 20.2879 44.2881 20.3348C44.3769 20.3817 44.447 20.4485 44.4899 20.5272L44.4889 20.5288ZM34.9429 34.733L30.6159 36.4776L44.2649 42.304L57.9329 36.4646L52.9179 34.3324L52.6049 33.2273L58.4299 35.6594L62.7299 32.3545L55.1249 28.992L55.9119 28.4394L56.0339 28.3468L64.1169 31.815C64.165 31.8346 64.2089 31.8604 64.2469 31.8913C64.3438 31.9714 64.3981 32.0793 64.3981 32.1916C64.3981 32.3039 64.3438 32.4118 64.2469 32.4919L59.5269 36.2444L64.0779 40.665C64.1223 40.7076 64.1558 40.7571 64.1764 40.8103C64.1971 40.8636 64.2045 40.9197 64.1983 40.9754C64.1921 41.031 64.1723 41.0851 64.1401 41.1345C64.1079 41.1839 64.064 41.2276 64.0109 41.263C63.9787 41.2859 63.9431 41.3052 63.9049 41.3207L59.8209 43.0808V49.6628C59.8197 49.7471 59.7883 49.8292 59.7303 49.8991C59.6724 49.969 59.5905 50.0236 59.4949 50.0561L44.7249 56.1506C44.675 56.195 44.6143 56.2304 44.5467 56.2546C44.479 56.2788 44.4058 56.2913 44.3319 56.2912C44.2345 56.2911 44.1391 56.2689 44.0564 56.2271C43.9738 56.1853 43.9071 56.1256 43.8639 56.0547L29.0639 50.0456C28.9779 50.0094 28.9058 49.9549 28.8552 49.8879C28.8046 49.8209 28.7775 49.7439 28.7769 49.6653V43.1133L24.6159 41.3256C24.5771 41.309 24.54 41.29 24.5049 41.2687C24.4512 41.2329 24.4068 41.1888 24.3743 41.1389C24.3418 41.0891 24.3219 41.0344 24.3156 40.9782C24.3094 40.922 24.317 40.8654 24.338 40.8116C24.359 40.7578 24.3929 40.708 24.4379 40.665L28.8709 36.3582L23.7329 32.3992C23.6422 32.3147 23.5963 32.2046 23.6051 32.0927C23.6139 31.9809 23.6767 31.8764 23.7799 31.802C23.8113 31.7806 23.8448 31.7614 23.8799 31.7443L31.7149 28.142C31.8171 28.2436 31.9287 28.3387 32.0489 28.4264L32.6489 28.8417L25.1769 32.2895L29.8579 35.8056L35.2509 33.6319L34.9429 34.733ZM58.9359 37.0026L44.9889 42.9565L47.9109 47.0568L62.5709 40.578L58.9359 37.0026Z" fill="#EC642A"/>
</svg>
