<svg width="33" height="33" viewBox="0 0 33 33" fill="none" xmlns="http://www.w3.org/2000/svg">
<path d="M31.6204 16.047C31.6204 7.46063 24.6597 0.5 16.0734 0.5C7.487 0.5 0.526367 7.46063 0.526367 16.047C0.526367 24.6334 7.487 31.594 16.0734 31.594C24.6597 31.594 31.6204 24.6334 31.6204 16.047Z" stroke="white"/>
<path fill-rule="evenodd" clip-rule="evenodd" d="M16.466 8.58984C14.366 8.58984 14.107 8.59884 13.284 8.63584C12.6439 8.64902 12.0107 8.7704 11.411 8.99484C10.8979 9.19278 10.4319 9.49594 10.043 9.88483C9.65415 10.2737 9.35098 10.7397 9.15305 11.2528C8.9286 11.8525 8.80722 12.4857 8.79405 13.1258C8.75605 13.9488 8.74805 14.2118 8.74805 16.3078C8.74805 18.4038 8.75605 18.6668 8.79405 19.4898C8.80722 20.13 8.9286 20.7632 9.15305 21.3628C9.35099 21.8757 9.65405 22.3414 10.0428 22.7301C10.4315 23.1188 10.8972 23.4219 11.41 23.6198C12.0097 23.8443 12.6429 23.9657 13.283 23.9788C14.107 24.0158 14.369 24.0248 16.465 24.0248C18.561 24.0248 18.824 24.0158 19.647 23.9788C20.2872 23.9657 20.9204 23.8443 21.52 23.6198C22.0329 23.4219 22.4986 23.1188 22.8873 22.7301C23.276 22.3414 23.5791 21.8757 23.777 21.3628C24.0022 20.7633 24.1242 20.1301 24.138 19.4898C24.175 18.6658 24.184 18.4038 24.184 16.3078C24.184 14.2118 24.175 13.9488 24.138 13.1258C24.1249 12.4857 24.0035 11.8525 23.779 11.2528C23.5811 10.74 23.278 10.2743 22.8893 9.88555C22.5006 9.49685 22.0349 9.19378 21.522 8.99584C20.9222 8.77095 20.2886 8.64923 19.648 8.63584C18.825 8.59884 18.562 8.58984 16.466 8.58984ZM16.466 9.98084C18.527 9.98084 18.766 9.98884 19.584 10.0258C20.0736 10.0313 20.5586 10.1206 21.018 10.2898C21.351 10.4182 21.6534 10.6149 21.9057 10.8672C22.158 11.1195 22.3547 11.4219 22.483 11.7548C22.6528 12.2145 22.7424 12.6999 22.748 13.1898C22.785 14.0038 22.793 14.2468 22.793 16.3088C22.793 18.3708 22.785 18.6088 22.748 19.4268C22.7419 19.9164 22.6522 20.4014 22.483 20.8608C22.3547 21.1938 22.158 21.4962 21.9057 21.7485C21.6534 22.0008 21.351 22.1975 21.018 22.3258C20.559 22.495 20.0743 22.5843 19.585 22.5898C18.772 22.6268 18.528 22.6348 16.466 22.6348C14.404 22.6348 14.161 22.6268 13.348 22.5898C12.8585 22.5837 12.3735 22.494 11.914 22.3248C11.5809 22.1966 11.2783 22 11.0258 21.7477C10.7733 21.4953 10.5765 21.1929 10.448 20.8598C10.2782 20.4009 10.1885 19.9162 10.183 19.4268C10.146 18.6128 10.138 18.3698 10.138 16.3078C10.138 14.2458 10.146 14.0078 10.183 13.1898C10.1888 12.7002 10.2784 12.2152 10.448 11.7558C10.5764 11.4226 10.7732 11.12 11.0257 10.8675C11.2782 10.615 11.5808 10.4182 11.914 10.2898C12.3733 10.1202 12.8584 10.0309 13.348 10.0258C14.162 9.98884 14.404 9.98084 16.466 9.98084ZM16.467 18.8808C15.9584 18.8808 15.4611 18.73 15.0381 18.4474C14.6152 18.1648 14.2855 17.7631 14.0908 17.2931C13.8962 16.8231 13.8452 16.306 13.9445 15.8071C14.0437 15.3082 14.2887 14.8499 14.6484 14.4902C15.0081 14.1305 15.4664 13.8855 15.9653 13.7863C16.4642 13.687 16.9813 13.738 17.4513 13.9326C17.9213 14.1273 18.323 14.457 18.6056 14.8799C18.8882 15.3029 19.039 15.8001 19.039 16.3088C19.039 16.991 18.7681 17.6452 18.2857 18.1275C17.8034 18.6099 17.1492 18.8808 16.467 18.8808ZM16.467 12.3448C15.6832 12.3448 14.917 12.5773 14.2653 13.0127C13.6136 13.4482 13.1057 14.0671 12.8057 14.7913C12.5058 15.5154 12.4273 16.3122 12.5802 17.081C12.7331 17.8497 13.1105 18.5559 13.6648 19.1101C14.219 19.6643 14.9252 20.0418 15.6939 20.1947C16.4627 20.3476 17.2595 20.2691 17.9836 19.9692C18.7078 19.6692 19.3267 19.1613 19.7622 18.5096C20.1976 17.8579 20.43 17.0917 20.43 16.3078C20.43 15.2568 20.0125 14.2488 19.2693 13.5056C18.5261 12.7624 17.5181 12.3448 16.467 12.3448ZM21.512 12.1898C21.512 12.373 21.4577 12.552 21.356 12.7043C21.2542 12.8566 21.1096 12.9753 20.9404 13.0454C20.7712 13.1154 20.585 13.1338 20.4054 13.0981C20.2258 13.0623 20.0608 12.9741 19.9313 12.8446C19.8018 12.7151 19.7136 12.5501 19.6778 12.3705C19.6421 12.1909 19.6604 12.0047 19.7305 11.8355C19.8006 11.6663 19.9193 11.5217 20.0716 11.4199C20.2239 11.3182 20.4029 11.2638 20.586 11.2638C20.8316 11.2638 21.0672 11.3614 21.2408 11.5351C21.4145 11.7087 21.512 11.9443 21.512 12.1898Z" fill="white"/>
</svg>
