<svg width="14" height="19" viewBox="0 0 14 19" fill="none" xmlns="http://www.w3.org/2000/svg">
<path d="M6.86901 0.719299C5.04797 0.721658 3.30219 1.43918 2.01452 2.71452C0.72685 3.98986 0.00238895 5.71891 7.63198e-06 7.52251C-0.00222164 8.99669 0.483978 10.4309 1.38401 11.605C1.38401 11.605 1.57101 11.8497 1.60201 11.8843L6.87001 18.0368L12.14 11.8804C12.167 11.8477 12.355 11.604 12.355 11.604C13.2543 10.4303 13.7401 8.99689 13.738 7.5235C13.7359 5.71973 13.0115 3.99042 11.7238 2.71487C10.4361 1.43932 8.69022 0.721658 6.86901 0.719299ZM6.86901 9.99658C6.37455 9.99658 5.89121 9.85136 5.48008 9.57929C5.06896 9.30722 4.74853 8.92051 4.55931 8.46807C4.37009 8.01563 4.32058 7.51778 4.41704 7.03747C4.51351 6.55716 4.75161 6.11597 5.10124 5.76969C5.45087 5.42341 5.89633 5.18759 6.38128 5.09205C6.86623 4.99651 7.3689 5.04554 7.82572 5.23295C8.28253 5.42036 8.67298 5.73772 8.94768 6.1449C9.22239 6.55209 9.36901 7.03081 9.36901 7.52053C9.36901 8.17722 9.10561 8.80701 8.63677 9.27136C8.16793 9.73571 7.53205 9.99658 6.86901 9.99658Z" fill="#270B79"/>
</svg>
