<svg width="41" height="46" viewBox="0 0 41 46" fill="none" xmlns="http://www.w3.org/2000/svg">
<path fill-rule="evenodd" clip-rule="evenodd" d="M0.685563 5.87702H8.98556L8.97456 5.73402V2.01002C9.03674 1.55738 9.2724 1.14662 9.63177 0.864497C9.99115 0.58237 10.4461 0.45096 10.9006 0.498018C11.3548 0.45224 11.8091 0.584132 12.1682 0.866028C12.5272 1.14792 12.7632 1.55792 12.8266 2.01002V5.73502L12.8156 5.87802H26.9456L26.9346 5.73502V2.01002C26.9965 1.55804 27.2315 1.14776 27.5901 0.865693C27.9486 0.583625 28.4027 0.451803 28.8566 0.498018C29.3108 0.45224 29.7651 0.584132 30.1242 0.866028C30.4832 1.14792 30.7192 1.55792 30.7826 2.01002V5.73502L30.7716 5.87802H39.6006C39.7822 5.87828 39.9562 5.95054 40.0846 6.07894C40.213 6.20735 40.2853 6.38143 40.2856 6.56302V13.688C40.2853 13.8696 40.213 14.0437 40.0846 14.1721C39.9562 14.3005 39.7822 14.3728 39.6006 14.373H0.685563C0.50394 14.3712 0.330319 14.298 0.202166 14.1693C0.0740132 14.0406 0.00160389 13.8666 0.000563257 13.685V6.55902C0.000825516 6.46933 0.0187516 6.38056 0.0533181 6.2978C0.0878846 6.21503 0.138414 6.13989 0.202023 6.07665C0.265631 6.01341 0.341072 5.96332 0.424038 5.92924C0.507004 5.89516 0.59587 5.87676 0.685563 5.87702ZM11.4856 31.086C11.1131 30.7316 10.8913 30.2474 10.8665 29.7338C10.8416 29.2202 11.0155 28.7168 11.352 28.3281C11.6885 27.9393 12.1618 27.6951 12.6736 27.6461C13.1854 27.5971 13.6964 27.7472 14.1006 28.065L18.6596 32.02L26.0966 24.681C26.4787 24.3433 26.9755 24.1643 27.4853 24.1807C27.995 24.1971 28.4793 24.4076 28.839 24.7692C29.1986 25.1308 29.4066 25.6162 29.4203 26.126C29.434 26.6358 29.2523 27.1316 28.9126 27.512L20.1536 36.154C19.7968 36.5092 19.3192 36.7168 18.8161 36.7353C18.3131 36.7538 17.8215 36.582 17.4396 36.254L11.4806 31.086H11.4856ZM0.172563 15.948H40.1176C40.1399 15.9481 40.162 15.9527 40.1826 15.9615C40.2032 15.9702 40.2219 15.9829 40.2375 15.9989C40.2531 16.0149 40.2654 16.0339 40.2737 16.0547C40.2819 16.0754 40.286 16.0977 40.2856 16.12V45.328C40.285 45.3724 40.2672 45.4148 40.2358 45.4462C40.2044 45.4776 40.162 45.4955 40.1176 45.496H0.172563C0.150238 45.4963 0.12808 45.4921 0.107353 45.4838C0.0866265 45.4755 0.0677379 45.4632 0.0517659 45.4476C0.0357939 45.432 0.0230514 45.4135 0.014266 45.3929C0.00548057 45.3724 0.000824361 45.3503 0.000563257 45.328V16.12C-0.000109136 16.0976 0.00374678 16.0752 0.0119007 16.0543C0.0200545 16.0334 0.0323391 16.0144 0.0480205 15.9983C0.0637018 15.9823 0.0824583 15.9695 0.103169 15.9609C0.123881 15.9523 0.146121 15.9479 0.168563 15.948H0.172563ZM3.23756 19.02H37.6006C37.6912 19.0218 37.7777 19.0586 37.8418 19.1228C37.906 19.1869 37.9428 19.2733 37.9446 19.364V42.38C37.9409 42.4701 37.9034 42.5554 37.8397 42.6192C37.776 42.6829 37.6906 42.7203 37.6006 42.724H3.07256C2.98189 42.7222 2.89543 42.6854 2.8313 42.6213C2.76717 42.5572 2.73035 42.4707 2.72856 42.38V19.529C2.72883 19.3485 2.80066 19.1754 2.92832 19.0478C3.05597 18.9201 3.22903 18.8483 3.40956 18.848L3.23756 19.02ZM28.6886 11.436C29.1428 11.4818 29.5971 11.3499 29.9562 11.068C30.3152 10.7861 30.5512 10.3761 30.6146 9.92402V6.03102L30.6036 5.88102H26.7766L26.7656 6.03102V9.75202C26.8275 10.2042 27.0627 10.6146 27.4214 10.8967C27.7802 11.1788 28.2345 11.3105 28.6886 11.264V11.436ZM10.7266 11.436C11.1808 11.4818 11.6351 11.3499 11.9942 11.068C12.3532 10.7861 12.5892 10.3761 12.6526 9.92402V6.03102L12.6416 5.88102H8.81156L8.80056 6.03102V9.75202C8.8625 10.2042 9.09766 10.6146 9.45644 10.8967C9.81521 11.1788 10.2695 11.3105 10.7236 11.264V11.436H10.7266Z" fill="#EC642A"/>
</svg>
