<svg width="17" height="14" viewBox="0 0 17 14" fill="none" xmlns="http://www.w3.org/2000/svg">
<path d="M16.9 5.16641C16.8791 5.32154 16.7844 5.46388 16.636 5.56296L12.949 8.48831L13.823 12.6155C13.8307 12.6694 13.834 12.7237 13.833 12.778C13.837 12.8826 13.7995 12.9854 13.726 13.0714C13.6907 13.1107 13.6438 13.1423 13.5897 13.1631C13.5355 13.184 13.4758 13.1935 13.416 13.1908C13.2727 13.187 13.133 13.1529 13.011 13.0917L8.451 11.1414L3.89 13.0917C3.76692 13.1516 3.62737 13.1857 3.484 13.1908C3.42264 13.1941 3.36122 13.185 3.30533 13.1641C3.24945 13.1432 3.20086 13.1114 3.164 13.0714C3.09052 12.9854 3.05301 12.8826 3.057 12.778C3.05959 12.7236 3.06627 12.6693 3.077 12.6155L3.951 8.48831L0.251 5.56296C0.110541 5.46012 0.0212579 5.31907 0 5.16641C0 4.96272 0.189667 4.83623 0.569 4.78693L5.669 4.18479L7.953 0.428159C8.08167 0.202799 8.24767 0.0901184 8.451 0.0901184C8.65433 0.0901184 8.821 0.202799 8.951 0.428159L11.236 4.18398L16.336 4.78612C16.712 4.83595 16.9 4.96272 16.9 5.16641Z" fill="#E3FC03"/>
</svg>
