<svg width="12" height="16" viewBox="0 0 12 16" fill="none" xmlns="http://www.w3.org/2000/svg">
<path d="M0.77393 8.04748C0.773456 8.21119 0.812989 8.37336 0.890237 8.52457C0.967484 8.67578 1.08091 8.81302 1.22393 8.92833L9.40593 15.577C9.69707 15.7973 10.0821 15.9172 10.4799 15.9114C10.8777 15.9055 11.2571 15.7744 11.5383 15.5456C11.8194 15.3169 11.9802 15.0083 11.9869 14.6851C11.9935 14.3618 11.8455 14.0491 11.5739 13.8129L4.47393 8.04341L11.5739 2.27398C11.8488 2.03803 11.9995 1.72425 11.994 1.3994C11.9885 1.07454 11.8273 0.764246 11.5445 0.534517C11.2618 0.304788 10.88 0.173756 10.4802 0.169297C10.0804 0.164838 9.69429 0.287303 9.40393 0.51064L1.22393 7.16581C0.93629 7.39974 0.774476 7.71678 0.77393 8.04748Z" fill="white"/>
</svg>
