<svg width="25" height="34" viewBox="0 0 25 34" fill="none" xmlns="http://www.w3.org/2000/svg">
<path d="M14.4346 33.5523C3.50059 24.1909 -0.575843 14.2162 0.19008 8.67584C0.388134 6.90005 1.07256 5.21334 2.168 3.8014C3.26344 2.38946 4.72741 1.30707 6.39871 0.673387C8.029 0.0689701 9.78316 -0.124606 11.5061 0.109773C13.229 0.344152 14.8676 0.999267 16.277 2.01719C20.0787 4.71596 22.8079 10.2016 21.8022 18.9155C21.9037 18.9516 22.0047 18.993 22.1058 19.0389C22.5189 19.22 22.8913 19.4824 23.2008 19.8104C23.5103 20.1384 23.7506 20.5253 23.9073 20.9481C24.2089 21.7929 24.165 22.7226 23.785 23.5352C23.4049 24.3478 22.7195 24.9777 21.8776 25.2881C21.4613 25.4464 21.0178 25.5208 20.5726 25.5068C20.1274 25.4928 19.6894 25.3909 19.2838 25.2068C18.8782 25.0227 18.5131 24.7602 18.2096 24.4343C17.9061 24.1084 17.6702 23.7257 17.5154 23.3082C17.3527 22.888 17.278 22.4388 17.2962 21.9886C17.3143 21.5384 17.4248 21.0966 17.6208 20.6909C17.9511 19.9494 18.5467 19.3582 19.2908 19.0334C20.189 11.3525 17.9918 6.27489 14.8519 4.0441C13.7737 3.26127 12.5192 2.75592 11.1992 2.57269C9.87919 2.38946 8.53439 2.53399 7.28354 2.99352C6.03212 3.47559 4.93793 4.29331 4.1213 5.35673C3.30468 6.42015 2.79726 7.68809 2.65483 9.02111C1.9851 13.8689 4.79584 21.1066 14.5025 30.1928L14.4396 33.5536L14.4346 33.5523Z" fill="black"/>
</svg>
