<svg width="58" height="46" viewBox="0 0 58 46" fill="none" xmlns="http://www.w3.org/2000/svg">
<path d="M1.63215 8.16101L20.2359 0.903345C20.4684 0.811469 20.7175 0.769011 20.9673 0.778681C21.2171 0.788351 21.4622 0.849937 21.6869 0.959511C32.7426 6.33048 44.2772 11.5933 55.1566 17.2164C56.2916 17.7873 57.1533 18.7854 57.5522 19.9912C57.9512 21.197 57.8548 22.5119 57.2842 23.6466C54.0919 30.098 50.8234 36.5256 47.5947 42.9604C47.5605 43.0305 47.5259 43.1015 47.4918 43.1716C47.2184 43.7797 46.8201 44.3236 46.3226 44.7677C45.8252 45.2119 45.2398 45.5464 44.6045 45.7496C43.4784 46.1035 42.2623 46.0392 41.1799 45.5684C41.026 45.5039 40.8759 45.4308 40.7304 45.3495L8.05526 29.0849C7.83299 28.9875 7.63265 28.8462 7.46623 28.6697C7.29981 28.4931 7.17071 28.2848 7.08668 28.0572L0.606602 10.507C0.431636 10.06 0.441371 9.56177 0.633667 9.12187C0.825964 8.68198 1.1851 8.33638 1.63215 8.16101Z" fill="black"/>
</svg>
