<svg width="25" height="35" viewBox="0 0 25 35" fill="none" xmlns="http://www.w3.org/2000/svg">
<path d="M14.4341 34.308C3.5001 24.9428 -0.576331 14.9642 0.189592 9.42162C0.387646 7.64513 1.07207 5.95774 2.16751 4.54524C3.26295 3.13274 4.72692 2.04992 6.39822 1.41599C8.02851 0.811328 9.78267 0.617674 11.5056 0.852147C13.2285 1.08662 14.8671 1.742 16.2765 2.76033C20.0782 5.46016 22.8074 10.948 21.8017 19.6653C21.9032 19.7014 22.0042 19.7429 22.1054 19.7888C22.5184 19.97 22.8908 20.2325 23.2003 20.5606C23.5098 20.8888 23.7501 21.2758 23.9068 21.6988C24.2085 22.5439 24.1645 23.474 23.7845 24.2869C23.4044 25.0998 22.7191 25.73 21.8772 26.0405C21.4608 26.1989 21.0173 26.2732 20.5721 26.2593C20.1269 26.2453 19.6889 26.1433 19.2833 25.9592C18.8777 25.775 18.5126 25.5124 18.2091 25.1864C17.9056 24.8604 17.6697 24.4775 17.5149 24.0598C17.3522 23.6394 17.2776 23.1901 17.2957 22.7397C17.3138 22.2893 17.4243 21.8474 17.6204 21.4414C17.9506 20.6997 18.5462 20.1083 19.2903 19.7833C20.1885 12.0993 17.9913 7.01971 14.8514 4.78804C13.7732 4.0049 12.5187 3.49935 11.1987 3.31604C9.87871 3.13274 8.5339 3.27733 7.28305 3.73704C6.03163 4.21931 4.93744 5.03734 4.12081 6.10119C3.30419 7.16504 2.79677 8.43348 2.65435 9.76703C1.98461 14.6167 4.79535 21.8574 14.502 30.9471L14.4391 34.3093L14.4341 34.308Z" fill="black"/>
</svg>
