<svg width="13" height="16" viewBox="0 0 13 16" fill="none" xmlns="http://www.w3.org/2000/svg">
<path d="M12.225 8.04749C12.2255 8.21121 12.186 8.37338 12.1087 8.52459C12.0315 8.6758 11.918 8.81304 11.775 8.92835L3.59402 15.577C3.30612 15.811 2.91566 15.9424 2.50852 15.9424C2.10138 15.9424 1.71091 15.811 1.42302 15.577C1.13513 15.3431 0.973389 15.0258 0.973389 14.6949C0.973389 14.3641 1.13512 14.0468 1.42302 13.8129L8.52302 8.04343L1.42302 2.27399C1.14817 2.03805 0.997466 1.72427 1.00295 1.39941C1.00844 1.07456 1.16969 0.764264 1.4524 0.534535C1.73511 0.304806 2.11697 0.173774 2.51674 0.169315C2.91652 0.164856 3.30265 0.287321 3.59302 0.510658L11.774 7.16583C12.062 7.39963 12.2242 7.71668 12.225 8.04749Z" fill="white"/>
</svg>
