<svg width="54" height="42" viewBox="0 0 54 42" fill="none" xmlns="http://www.w3.org/2000/svg">
<path d="M18.8955 0.333526L11.9259 3.05605C12.0687 4.9263 12.0266 6.80607 11.8002 8.66806C11.9017 8.70414 12.0027 8.74559 12.1039 8.79151C12.5169 8.9727 12.8893 9.23519 13.1988 9.56333C13.5083 9.89147 13.7486 10.2786 13.9053 10.7015C14.207 11.5467 14.163 12.4767 13.783 13.2896C13.4029 14.1025 12.7176 14.7327 11.8757 15.0432C11.4593 15.2016 11.0158 15.276 10.5706 15.262C10.1254 15.248 9.68737 15.146 9.2818 14.9619C8.87623 14.7777 8.51115 14.5151 8.20763 14.1891C7.90412 13.8631 7.66817 13.4802 7.51341 13.0625C7.35067 12.6422 7.27606 12.1928 7.2942 11.7424C7.31234 11.292 7.42285 10.8501 7.61886 10.4442C7.94908 9.70241 8.54475 9.11097 9.28882 8.78603C9.48001 7.20718 9.53307 5.61466 9.44739 4.02658L0.288767 7.60261L6.77956 25.2017L39.723 41.6068C40.0767 41.7919 40.4639 41.9044 40.8618 41.9375C41.2596 41.9706 41.66 41.9237 42.0395 41.7997C42.4189 41.6756 42.7697 41.4768 43.0711 41.2151C43.3725 40.9533 43.6185 40.6339 43.7945 40.2755L53.6378 20.6475C53.8233 20.2939 53.936 19.9068 53.9694 19.509C54.0027 19.1111 53.956 18.7106 53.832 18.3311C53.708 17.9516 53.5092 17.6008 53.2473 17.2995C52.9854 16.9981 52.6658 16.7522 52.3074 16.5765L18.8955 0.333526Z" fill="#EC642A"/>
</svg>
