<svg width="41" height="46" viewBox="0 0 41 46" fill="none" xmlns="http://www.w3.org/2000/svg">
<path fill-rule="evenodd" clip-rule="evenodd" d="M0.685075 6.12805H8.98507L8.97408 5.98511V2.26259C9.03625 1.81013 9.27191 1.39954 9.63128 1.11752C9.99066 0.835506 10.4456 0.704148 10.9001 0.751189C11.3543 0.705428 11.8086 0.837268 12.1677 1.11905C12.5267 1.40084 12.7627 1.81067 12.8261 2.26259V5.9861L12.8151 6.12905H26.9451L26.9341 5.9861V2.26259C26.996 1.81078 27.231 1.40067 27.5896 1.11872C27.9481 0.836761 28.4022 0.704991 28.8561 0.751189C29.3103 0.705428 29.7646 0.837268 30.1237 1.11905C30.4827 1.40084 30.7187 1.81067 30.7821 2.26259V5.9861L30.7711 6.12905H39.6001C39.7817 6.12931 39.9557 6.20154 40.0842 6.32989C40.2126 6.45825 40.2848 6.63226 40.2851 6.81378V13.9359C40.2848 14.1175 40.2126 14.2915 40.0842 14.4198C39.9557 14.5482 39.7817 14.6204 39.6001 14.6207H0.685075C0.503452 14.6188 0.329831 14.5457 0.201678 14.417C0.0735249 14.2884 0.00111561 14.1145 7.49755e-05 13.9329V6.80978C0.000337235 6.72012 0.0182634 6.63139 0.0528298 6.54866C0.0873963 6.46593 0.137926 6.39081 0.201534 6.3276C0.265143 6.26439 0.340583 6.21432 0.42355 6.18025C0.506516 6.14618 0.595382 6.12779 0.685075 6.12805ZM11.4851 31.327C11.1126 30.9728 10.8909 30.4887 10.866 29.9753C10.8411 29.462 11.015 28.9588 11.3515 28.5702C11.688 28.1816 12.1613 27.9375 12.6731 27.8885C13.1849 27.8395 13.6959 27.9895 14.1001 28.3072L18.6591 32.2606L26.0961 24.9246C26.4782 24.587 26.975 24.408 27.4848 24.4244C27.9945 24.4408 28.4788 24.6513 28.8385 25.0127C29.1981 25.3742 29.4061 25.8593 29.4198 26.369C29.4335 26.8786 29.2518 27.3742 28.9121 27.7544L20.1531 36.393C19.7963 36.748 19.3187 36.9555 18.8157 36.9741C18.3126 36.9926 17.821 36.8208 17.4391 36.493L11.4801 31.327H11.4851ZM0.172075 16.195H40.1171C40.1394 16.1952 40.1616 16.1997 40.1821 16.2085C40.2027 16.2172 40.2214 16.2299 40.237 16.2459C40.2526 16.2619 40.2649 16.2809 40.2732 16.3016C40.2814 16.3224 40.2855 16.3446 40.2851 16.367V45.5634C40.2846 45.6077 40.2667 45.6501 40.2353 45.6815C40.2039 45.7129 40.1615 45.7308 40.1171 45.7313H0.172075C0.14975 45.7316 0.127591 45.7274 0.106865 45.7191C0.0861382 45.7108 0.0672496 45.6985 0.0512776 45.6829C0.0353056 45.6673 0.0225631 45.6488 0.0137777 45.6282C0.00499228 45.6077 0.000336079 45.5857 7.49755e-05 45.5634V16.367C-0.000597417 16.3445 0.0032585 16.3222 0.0114124 16.3013C0.0195663 16.2804 0.0318508 16.2614 0.0475322 16.2453C0.0632136 16.2293 0.08197 16.2166 0.102681 16.2079C0.123392 16.1993 0.145633 16.1949 0.168075 16.195H0.172075ZM3.23707 19.2658H37.6001C37.6908 19.2676 37.7772 19.3044 37.8413 19.3685C37.9055 19.4326 37.9423 19.519 37.9441 19.6097V42.6165C37.9404 42.7065 37.903 42.7919 37.8392 42.8556C37.7755 42.9193 37.6901 42.9567 37.6001 42.9604H3.07207C2.9814 42.9586 2.89494 42.9218 2.83081 42.8577C2.76668 42.7936 2.72987 42.7072 2.72807 42.6165V19.7746C2.72834 19.5942 2.80017 19.4212 2.92783 19.2936C3.05548 19.166 3.22854 19.0942 3.40907 19.0939L3.23707 19.2658ZM28.6881 11.6848C29.1423 11.7306 29.5966 11.5988 29.9557 11.317C30.3147 11.0352 30.5507 10.6254 30.6141 10.1734V6.28199L30.6031 6.13205H26.7761L26.7651 6.28199V10.0015C26.827 10.4535 27.0622 10.8638 27.4209 11.1458C27.7797 11.4277 28.2341 11.5594 28.6881 11.5129V11.6848ZM10.7261 11.6848C11.1803 11.7306 11.6346 11.5988 11.9937 11.317C12.3527 11.0352 12.5887 10.6254 12.6521 10.1734V6.28199L12.6411 6.13205H8.81108L8.80008 6.28199V10.0015C8.86201 10.4535 9.09718 10.8638 9.45595 11.1458C9.81473 11.4277 10.2691 11.5594 10.7231 11.5129V11.6848H10.7261Z" fill="#EC642A"/>
</svg>
