<svg width="54" height="43" viewBox="0 0 54 43" fill="none" xmlns="http://www.w3.org/2000/svg">
<path d="M18.8955 0.586769L11.9259 3.30821C12.0687 5.17772 12.0266 7.05674 11.8002 8.91799C11.9017 8.95405 12.0027 8.99548 12.1039 9.04139C12.5169 9.22251 12.8893 9.48489 13.1988 9.8129C13.5083 10.1409 13.7486 10.5278 13.9053 10.9506C14.207 11.7954 14.163 12.7251 13.783 13.5377C13.4029 14.3503 12.7176 14.9802 11.8757 15.2906C11.4593 15.4489 11.0158 15.5233 10.5706 15.5093C10.1254 15.4953 9.68737 15.3934 9.2818 15.2093C8.87623 15.0252 8.51115 14.7627 8.20763 14.4368C7.90412 14.1109 7.66817 13.7282 7.51341 13.3107C7.35067 12.8905 7.27606 12.4413 7.2942 11.9911C7.31234 11.5409 7.42285 11.0991 7.61886 10.6934C7.94908 9.95193 8.54475 9.36072 9.28882 9.03591C9.48001 7.45769 9.53307 5.8658 9.44739 4.27835L0.288767 7.85296L6.77956 25.445L39.723 41.8437C40.0767 42.0287 40.4639 42.1411 40.8618 42.1742C41.2596 42.2073 41.66 42.1604 42.0395 42.0364C42.4189 41.9124 42.7697 41.7137 43.0711 41.452C43.3725 41.1904 43.6185 40.8711 43.7945 40.5129L53.6378 20.8926C53.8233 20.5392 53.936 20.1523 53.9694 19.7546C54.0027 19.3569 53.956 18.9565 53.832 18.5772C53.708 18.1978 53.5092 17.8472 53.2473 17.5459C52.9854 17.2447 52.6658 16.999 52.3074 16.8232L18.8955 0.586769Z" fill="#EC642A"/>
</svg>
