<svg width="58" height="46" viewBox="0 0 58 46" fill="none" xmlns="http://www.w3.org/2000/svg">
<path d="M1.63215 7.90977L20.2359 0.64922C20.4684 0.557307 20.7175 0.514833 20.9673 0.524506C21.2171 0.53418 21.4622 0.595791 21.6869 0.705408C32.7426 6.07852 44.2772 11.3434 55.1566 16.9688C56.2916 17.5399 57.1533 18.5384 57.5522 19.7447C57.9512 20.951 57.8548 22.2663 57.2842 23.4016C54.0919 29.8555 50.8234 36.2857 47.5947 42.723C47.5605 42.7931 47.5259 42.8642 47.4918 42.9343C47.2184 43.5427 46.8201 44.0867 46.3226 44.5311C45.8252 44.9754 45.2398 45.3101 44.6045 45.5133C43.4784 45.8674 42.2623 45.803 41.1799 45.332C41.026 45.2676 40.8759 45.1944 40.7304 45.113L8.05526 28.842C7.83299 28.7445 7.63265 28.6032 7.46623 28.4266C7.29981 28.2499 7.17072 28.0415 7.08668 27.8139L0.606602 10.2567C0.431637 9.8095 0.441371 9.31109 0.633668 8.87102C0.825964 8.43095 1.1851 8.08521 1.63215 7.90977Z" fill="black"/>
</svg>
