<svg width="231" height="43" viewBox="0 0 231 43" fill="none" xmlns="http://www.w3.org/2000/svg">
<path d="M225.426 0.141357H5.41602C2.65459 0.141357 0.416016 1.96042 0.416016 4.20434V38.3334C0.416016 40.5773 2.65459 42.3964 5.41602 42.3964H225.426C228.187 42.3964 230.426 40.5773 230.426 38.3334V4.20434C230.426 1.96042 228.187 0.141357 225.426 0.141357Z" fill="white"/>
<path d="M225.426 0.344513H5.41602C2.79266 0.344513 0.666016 2.07262 0.666016 4.20435V38.3334C0.666016 40.4651 2.79266 42.1932 5.41602 42.1932H225.426C228.049 42.1932 230.176 40.4651 230.176 38.3334V4.20435C230.176 2.07262 228.049 0.344513 225.426 0.344513Z" stroke="#ADADAD" stroke-width="0.5"/>
</svg>
