<svg width="69" height="24" viewBox="0 0 69 24" fill="none" xmlns="http://www.w3.org/2000/svg">
<path d="M65 0.778625H4C1.79086 0.778625 0 2.23387 0 4.02901V20.281C0 22.0761 1.79086 23.5313 4 23.5313H65C67.2091 23.5313 69 22.0761 69 20.281V4.02901C69 2.23387 67.2091 0.778625 65 0.778625Z" fill="white"/>
<path d="M65 1.18494H4C2.067 1.18494 0.5 2.45828 0.5 4.02903V20.281C0.5 21.8517 2.067 23.125 4 23.125H65C66.933 23.125 68.5 21.8517 68.5 20.281V4.02903C68.5 2.45828 66.933 1.18494 65 1.18494Z" stroke="#270B79"/>
</svg>
