<svg width="584" height="590" viewBox="0 0 584 590" fill="none" xmlns="http://www.w3.org/2000/svg">
<path d="M560 0.481934H24C10.7452 0.481934 0 11.1242 0 24.2521V566.013C0 579.141 10.7452 589.783 24 589.783H560C573.255 589.783 584 579.141 584 566.013V24.2521C584 11.1242 573.255 0.481934 560 0.481934Z" fill="white"/>
<path d="M560 0.729492H24C10.8832 0.729492 0.25 11.2609 0.25 24.252V566.013C0.25 579.004 10.8832 589.535 24 589.535H560C573.117 589.535 583.75 579.004 583.75 566.013V24.252C583.75 11.2609 573.117 0.729492 560 0.729492Z" stroke="#707070" stroke-width="0.5"/>
</svg>
