<svg width="1098" height="60" viewBox="0 0 1098 60" fill="none" xmlns="http://www.w3.org/2000/svg">
<path d="M1093 1.01537H5C2.23858 1.01537 0 2.83443 0 5.07835V55.4594C0 57.7033 2.23858 59.5223 5 59.5223H1093C1095.76 59.5223 1098 57.7033 1098 55.4594V5.07835C1098 2.83443 1095.76 1.01537 1093 1.01537Z" fill="white"/>
<path d="M1093 1.21852H5C2.37665 1.21852 0.25 2.94663 0.25 5.07836V55.4594C0.25 57.5911 2.37665 59.3192 5 59.3192H1093C1095.62 59.3192 1097.75 57.5911 1097.75 55.4594V5.07836C1097.75 2.94663 1095.62 1.21852 1093 1.21852Z" stroke="#ADADAD" stroke-width="0.5"/>
</svg>
