<svg width="108" height="43" viewBox="0 0 108 43" fill="none" xmlns="http://www.w3.org/2000/svg">
<path d="M102.584 0.141357H5.41602C2.65459 0.141357 0.416016 1.96042 0.416016 4.20434V38.3334C0.416016 40.5773 2.65459 42.3964 5.41602 42.3964H102.584C105.345 42.3964 107.584 40.5773 107.584 38.3334V4.20434C107.584 1.96042 105.345 0.141357 102.584 0.141357Z" fill="#EC642A"/>
<path d="M102.584 0.344513H5.41602C2.79266 0.344513 0.666016 2.07262 0.666016 4.20435V38.3334C0.666016 40.4651 2.79266 42.1932 5.41602 42.1932H102.584C105.207 42.1932 107.334 40.4651 107.334 38.3334V4.20435C107.334 2.07262 105.207 0.344513 102.584 0.344513Z" stroke="#ADADAD" stroke-width="0.5"/>
</svg>
