<svg width="256" height="52" viewBox="0 0 256 52" fill="none" xmlns="http://www.w3.org/2000/svg">
<path d="M248 0.0380249H8C3.58172 0.0380249 0 3.61975 0 8.03802V43.038C0 47.4563 3.58172 51.038 8 51.038H248C252.418 51.038 256 47.4563 256 43.038V8.03802C256 3.61975 252.418 0.0380249 248 0.0380249Z" fill="white"/>
<path d="M248 0.538025H8C3.85786 0.538025 0.5 3.89589 0.5 8.03802V43.038C0.5 47.1802 3.85786 50.538 8 50.538H248C252.142 50.538 255.5 47.1802 255.5 43.038V8.03802C255.5 3.89589 252.142 0.538025 248 0.538025Z" stroke="#707070"/>
</svg>
