<svg width="42" height="42" viewBox="0 0 42 42" fill="none" xmlns="http://www.w3.org/2000/svg">
<path opacity="0.2" d="M21 41.7225C32.598 41.7225 42 32.4105 42 20.9236C42 9.43674 32.598 0.124771 21 0.124771C9.40202 0.124771 0 9.43674 0 20.9236C0 32.4105 9.40202 41.7225 21 41.7225Z" fill="#EC642A"/>
<path d="M26 22.0956V18.9421C26 18.6794 25.8946 18.4275 25.7071 18.2417C25.5196 18.056 25.2652 17.9517 25 17.9517V11.4287C25.0001 11.0214 24.8949 10.6208 24.6946 10.265C24.4943 9.90922 24.2055 9.61008 23.8556 9.39601C23.5056 9.18194 23.1063 9.06004 22.6954 9.0419C22.2845 9.02377 21.8758 9.11 21.508 9.29239L18.886 10.5898C18.3182 10.8695 17.8407 11.3009 17.5074 11.8352C17.1741 12.3695 16.9984 12.9855 17 13.6136V17.9517C16.7348 17.9517 16.4804 18.056 16.2929 18.2417C16.1054 18.4275 16 18.6794 16 18.9421V22.0956C15.4171 22.2997 14.9121 22.6772 14.5541 23.1764C14.1961 23.6757 14.0026 24.2723 14 24.8846V27.8559C14.0016 29.1688 14.5289 30.4274 15.4662 31.3558C16.4036 32.2842 17.6744 32.8064 19 32.808H23C24.3256 32.8064 25.5964 32.2842 26.5338 31.3558C27.4711 30.4274 27.9984 29.1688 28 27.8559V24.8846C27.9974 24.2723 27.8039 23.6757 27.4459 23.1764C27.0879 22.6772 26.5829 22.2997 26 22.0956ZM18 21.9133V19.9325H24V21.9133H18ZM19 13.6136C18.9993 13.3535 19.072 13.0985 19.21 12.8772C19.3481 12.656 19.5458 12.4774 19.781 12.3617L22.4 11.0643C22.4629 11.032 22.5331 11.0164 22.6039 11.0189C22.6746 11.0215 22.7435 11.0421 22.8039 11.0787C22.8643 11.1154 22.914 11.1669 22.9484 11.2282C22.9827 11.2895 23.0005 11.3586 23 11.4287V17.9517H19V13.6136ZM26 27.8559C26 28.6439 25.6839 29.3997 25.1213 29.9569C24.5587 30.5141 23.7956 30.8271 23 30.8271H19C18.2044 30.8271 17.4413 30.5141 16.8787 29.9569C16.3161 29.3997 16 28.6439 16 27.8559V24.8846C16 24.6219 16.1054 24.37 16.2929 24.1843C16.4804 23.9985 16.7348 23.8942 17 23.8942H25C25.2652 23.8942 25.5196 23.9985 25.7071 24.1843C25.8946 24.37 26 24.6219 26 24.8846V27.8559Z" fill="#EC642A"/>
</svg>
