<svg width="42" height="42" viewBox="0 0 42 42" fill="none" xmlns="http://www.w3.org/2000/svg">
<path opacity="0.2" d="M21 41.7225C32.598 41.7225 42 32.4105 42 20.9236C42 9.43674 32.598 0.124771 21 0.124771C9.40202 0.124771 0 9.43674 0 20.9236C0 32.4105 9.40202 41.7225 21 41.7225Z" fill="#EC642A"/>
<path fill-rule="evenodd" clip-rule="evenodd" d="M18.3461 23.4597C18.0327 23.2527 17.7713 22.9773 17.582 22.6547C17.3927 22.3321 17.2805 21.9709 17.2541 21.5987H17.1941C17.0563 21.5998 16.9206 21.5657 16.8001 21.4996C16.6014 21.3763 16.449 21.1919 16.3661 20.9747C16.1661 20.5201 16.0131 19.3197 16.5111 18.977L16.4171 18.9137L16.4051 18.7829C16.3861 18.5413 16.3821 18.258 16.3771 17.943C16.3591 16.815 16.3361 15.4492 15.4201 15.1699L15.0281 15.053L15.2861 14.7361C15.9641 13.8865 16.7348 13.1135 17.5841 12.4313C18.3432 11.79 19.2555 11.3519 20.2341 11.1587C20.691 11.0844 21.1589 11.1099 21.6049 11.2334C22.0509 11.3569 22.4642 11.5755 22.8161 11.8737C23.0696 12.0791 23.3014 12.3094 23.5081 12.5611C23.9179 12.6057 24.3137 12.7353 24.6697 12.9414C25.0256 13.1476 25.3338 13.4256 25.5741 13.7575C25.8789 14.1617 26.1069 14.6175 26.2471 15.1025C26.3915 15.5976 26.4513 16.1131 26.4241 16.6278C26.3978 17.5581 26.0145 18.4436 25.3521 19.1038C25.4686 19.1066 25.5829 19.1361 25.6861 19.19C25.846 19.298 25.9629 19.4579 26.0167 19.6421C26.0706 19.8263 26.058 20.0233 25.9811 20.1992C25.8811 20.5072 25.7551 20.8638 25.6281 21.1649C25.4831 21.569 25.2751 21.6442 24.8631 21.6007C24.8441 22.603 24.3761 22.8773 23.7471 23.4656C23.7731 24.975 18.3011 24.7968 18.3341 23.4656L18.3461 23.4597ZM18.0621 24.7027L19.6901 28.9367L20.5091 26.6281L20.1091 26.1942C19.8091 25.7575 19.9091 25.2623 20.4621 25.1731C20.6641 25.1532 20.8674 25.1492 21.0701 25.1612C21.2917 25.1469 21.5142 25.1555 21.7341 25.187C22.2531 25.2989 22.3081 25.7971 22.0481 26.1942L21.6481 26.6281L22.4671 28.9367L23.9381 24.7027C24.9981 25.6505 28.7451 25.8417 29.9161 26.4854C31.5371 27.3847 31.4931 29.1209 31.8481 30.7304H10.1541C10.5071 29.1318 10.4701 27.3709 12.0861 26.4854C13.5251 25.6931 16.8861 25.7525 18.0621 24.7027Z" fill="#EC642A"/>
</svg>
