<svg width="57" height="56" viewBox="0 0 57 56" fill="none" xmlns="http://www.w3.org/2000/svg">
<path d="M28.0186 56C43.4825 56 56.0186 43.464 56.0186 28C56.0186 12.536 43.4825 0 28.0186 0C12.5546 0 0.0185547 12.536 0.0185547 28C0.0185547 43.464 12.5546 56 28.0186 56Z" fill="#EC642A"/>
<mask id="mask0_25_2400" style="mask-type:luminance" maskUnits="userSpaceOnUse" x="15" y="15" width="26" height="26">
<path d="M40.7675 15.25H15.2695V40.749H40.7675V15.25Z" fill="white"/>
</mask>
<g mask="url(#mask0_25_2400)">
<path d="M21.9395 15.25C22.0145 15.28 22.0895 15.313 22.1655 15.338C22.4125 15.4171 22.6289 15.5708 22.7849 15.7781C22.9409 15.9853 23.0288 16.2358 23.0365 16.495C23.0499 17.6074 23.1667 18.7162 23.3855 19.807C23.5275 20.42 23.6975 21.026 23.8685 21.632C23.9715 21.9363 23.9833 22.2641 23.9025 22.575C23.8216 22.8859 23.6517 23.1664 23.4135 23.382C22.4582 24.3047 21.4985 25.2227 20.5345 26.136C20.5048 26.1558 20.4795 26.1816 20.4602 26.2116C20.4408 26.2416 20.4278 26.2753 20.422 26.3106C20.4162 26.3458 20.4177 26.3819 20.4264 26.4165C20.4351 26.4512 20.4508 26.4837 20.4725 26.512C22.1642 29.7034 24.6338 32.4165 27.6525 34.4C28.2525 34.808 28.8995 35.158 29.5175 35.544C29.5431 35.5665 29.5733 35.5834 29.6059 35.5933C29.6385 35.6032 29.6729 35.6061 29.7067 35.6016C29.7405 35.5972 29.773 35.5855 29.8019 35.5675C29.8309 35.5494 29.8556 35.5254 29.8745 35.497C30.8255 34.535 31.7795 33.575 32.7475 32.629C32.9384 32.4349 33.1676 32.2826 33.4205 32.182C33.638 32.1073 33.8741 32.1073 34.0915 32.182C35.0257 32.5503 36.0028 32.7987 36.9995 32.921C37.8305 33.021 38.6695 33.046 39.4995 33.121C39.7892 33.1248 40.0687 33.2285 40.2908 33.4145C40.5129 33.6005 40.664 33.8575 40.7185 34.142C40.7309 34.1719 40.7463 34.2003 40.7645 34.227V39.606C40.3835 40.565 40.0765 40.765 39.0195 40.747C37.1517 40.7225 35.2929 40.4816 33.4805 40.029C29.764 39.1039 26.3247 37.2977 23.4535 34.763C21.1939 32.785 19.3279 30.3982 17.9535 27.728C16.6834 25.3077 15.8554 22.6802 15.5085 19.969C15.3705 18.892 15.3275 17.804 15.2705 16.72C15.2387 16.44 15.2987 16.1572 15.4416 15.9142C15.5844 15.6713 15.8023 15.4813 16.0625 15.373C16.1705 15.322 16.2945 15.291 16.4115 15.25H21.9395Z" fill="white"/>
</g>
</svg>
