<svg width="57" height="56" viewBox="0 0 57 56" fill="none" xmlns="http://www.w3.org/2000/svg">
<path d="M28.0186 56C43.4825 56 56.0186 43.464 56.0186 28C56.0186 12.536 43.4825 0 28.0186 0C12.5546 0 0.0185547 12.536 0.0185547 28C0.0185547 43.464 12.5546 56 28.0186 56Z" fill="#EC642A"/>
<path d="M42.7998 22.877L42.8698 37.694C42.873 38.0878 42.7978 38.4782 42.6487 38.8427C42.4995 39.2071 42.2793 39.5382 42.001 39.8168C41.7226 40.0953 41.3917 40.3157 41.0273 40.4651C40.663 40.6145 40.2726 40.6899 39.8788 40.687H16.1568C15.7624 40.6946 15.3707 40.6214 15.0057 40.4717C14.6407 40.3221 14.3103 40.0993 14.0348 39.817C13.7526 39.5413 13.5298 39.2107 13.3804 38.8455C13.2309 38.4804 13.1579 38.0885 13.1658 37.694V22.877C13.148 22.3631 13.2676 21.8537 13.512 21.4013C13.7565 20.9489 14.1171 20.5698 14.5568 20.303L27.9828 12.443L41.4088 20.303C41.8484 20.5698 42.209 20.9489 42.4535 21.4013C42.698 21.8537 42.8175 22.3631 42.7998 22.877ZM27.9828 30.251L40.2958 22.599L27.9828 15.434L15.7398 22.599L27.9828 30.251Z" fill="white"/>
</svg>
