<svg width="42" height="42" viewBox="0 0 42 42" fill="none" xmlns="http://www.w3.org/2000/svg">
<path opacity="0.2" d="M21 41.7225C32.598 41.7225 42 32.4105 42 20.9236C42 9.43674 32.598 0.124771 21 0.124771C9.40202 0.124771 0 9.43674 0 20.9236C0 32.4105 9.40202 41.7225 21 41.7225Z" fill="#EC642A"/>
<path fill-rule="evenodd" clip-rule="evenodd" d="M18.4779 23.333C18.1805 23.1359 17.9326 22.874 17.7532 22.5674C17.5738 22.2608 17.4676 21.9176 17.4429 21.5641H17.3859C17.2547 21.5635 17.1258 21.5294 17.0119 21.465C16.8235 21.3489 16.6785 21.175 16.5989 20.9698C16.4079 20.538 16.2629 19.397 16.7369 19.0722L16.6479 19.0127L16.6359 18.888C16.6179 18.6582 16.6139 18.3927 16.6089 18.0897C16.5919 17.018 16.5699 15.7196 15.6989 15.4581L15.3259 15.3452L15.5709 15.0481C16.2144 14.2392 16.9462 13.5031 17.7529 12.8533C18.4744 12.2435 19.3416 11.8268 20.2719 11.643C20.706 11.5725 21.1505 11.5968 21.5742 11.7142C21.9979 11.8315 22.3906 12.0391 22.7249 12.3224C22.9659 12.5178 23.1864 12.7368 23.3829 12.9761C23.7723 13.0186 24.1484 13.1417 24.4866 13.3376C24.8248 13.5335 25.1176 13.7978 25.3459 14.1131C25.6355 14.4974 25.852 14.9307 25.9849 15.3918C26.122 15.8621 26.1788 16.3519 26.1529 16.8408C26.1267 17.7233 25.7624 18.5629 25.1339 19.189C25.2444 19.1915 25.3529 19.2193 25.4509 19.2703C25.6028 19.3729 25.7139 19.5248 25.765 19.6997C25.8161 19.8747 25.804 20.0619 25.7309 20.229C25.6309 20.5261 25.5159 20.8609 25.3949 21.1461C25.2569 21.5304 25.0589 21.6017 24.6679 21.5601C24.6499 22.5129 24.2049 22.7734 23.6069 23.332C23.6319 24.7661 18.4309 24.5967 18.4629 23.332L18.4779 23.333ZM18.2079 24.5145L19.7549 28.5386L20.5339 26.3448L20.1529 25.9328C19.8659 25.5168 19.9649 25.0474 20.4889 24.9622C20.6806 24.9431 20.8735 24.9392 21.0659 24.9503C21.2765 24.9368 21.488 24.9451 21.6969 24.9751C22.1899 25.0811 22.2419 25.5555 21.9969 25.9328L21.6159 26.3448L22.3949 28.5386L23.7949 24.5145C24.8019 25.4158 28.3629 25.5961 29.4759 26.2101C31.0169 27.0649 30.9759 28.7149 31.3119 30.2441H10.6929C11.0289 28.7248 10.9929 27.051 12.5289 26.2101C13.8969 25.4574 17.0889 25.5168 18.2079 24.5145Z" fill="#EC642A"/>
</svg>
