<svg width="14" height="34" viewBox="0 0 14 34" fill="none" xmlns="http://www.w3.org/2000/svg">
<path d="M9.23 33.9891H4.615C4.31204 33.9891 4.01205 33.9294 3.73215 33.8135C3.45225 33.6975 3.19793 33.5276 2.98371 33.3134C2.76948 33.0991 2.59955 32.8448 2.48361 32.5649C2.36767 32.285 2.308 31.985 2.308 31.6821V23.6051C2.00496 23.6052 1.70486 23.5456 1.42484 23.4297C1.14483 23.3139 0.890388 23.144 0.676058 22.9297C0.461727 22.7155 0.291706 22.4611 0.175706 22.1811C0.0597058 21.9012 -2.84695e-08 21.6011 0 21.2981V14.3751C0 13.4571 0.364641 12.5768 1.0137 11.9278C1.66277 11.2787 2.54309 10.9141 3.461 10.9141H10.383C11.3009 10.9141 12.1812 11.2787 12.8303 11.9278C13.4794 12.5768 13.844 13.4571 13.844 14.3751V21.2971C13.844 21.9089 13.6009 22.4957 13.1683 22.9284C12.7356 23.361 12.1489 23.6041 11.537 23.6041V31.6801C11.5373 31.9832 11.4778 32.2834 11.362 32.5635C11.2461 32.8437 11.0763 33.0982 10.862 33.3127C10.6478 33.5271 10.3933 33.6972 10.1133 33.8133C9.83329 33.9293 9.53313 33.9891 9.23 33.9891ZM3.461 13.2211C3.30683 13.2109 3.15226 13.2338 3.00764 13.2882C2.86302 13.3426 2.7317 13.4272 2.62244 13.5365C2.51319 13.6458 2.42853 13.7771 2.37413 13.9217C2.31973 14.0663 2.29684 14.2209 2.307 14.3751V21.2971H4.614V31.6811H9.23V21.2981H11.537V14.3751C11.5472 14.2209 11.5243 14.0663 11.4699 13.9217C11.4155 13.7771 11.3308 13.6458 11.2216 13.5365C11.1123 13.4272 10.981 13.3426 10.8364 13.2882C10.6917 13.2338 10.5372 13.2109 10.383 13.2211H3.461Z" fill="black"/>
<path d="M6.92213 9.76003C6.00937 9.76003 5.11711 9.48937 4.35817 8.98226C3.59924 8.47516 3.00772 7.7544 2.65843 6.91112C2.30913 6.06783 2.21774 5.13991 2.39581 4.24469C2.57388 3.34947 3.01341 2.52715 3.65883 1.88173C4.30425 1.23631 5.12657 0.796778 6.02179 0.618707C6.91701 0.440637 7.84493 0.532029 8.68822 0.881327C9.5315 1.23063 10.2523 1.82214 10.7594 2.58107C11.2665 3.34001 11.5371 4.23227 11.5371 5.14503C11.5371 5.75108 11.4178 6.3512 11.1858 6.91112C10.9539 7.47103 10.614 7.97979 10.1854 8.40833C9.75689 8.83687 9.24813 9.17681 8.68822 9.40874C8.1283 9.64066 7.52818 9.76003 6.92213 9.76003ZM6.92213 2.83803C6.46585 2.83803 6.01981 2.97333 5.64043 3.22683C5.26105 3.48033 4.96535 3.84063 4.79074 4.26218C4.61613 4.68373 4.57044 5.14759 4.65946 5.5951C4.74848 6.04262 4.9682 6.45369 5.29084 6.77633C5.61348 7.09897 6.02454 7.31869 6.47206 7.4077C6.91957 7.49672 7.38343 7.45103 7.80498 7.27642C8.22653 7.10181 8.58684 6.80612 8.84033 6.42673C9.09383 6.04735 9.22913 5.60131 9.22913 5.14503C9.22926 4.84199 9.16969 4.54189 9.05381 4.26187C8.93793 3.98186 8.76802 3.72742 8.55378 3.51309C8.33954 3.29876 8.08518 3.12874 7.80521 3.01274C7.52525 2.89674 7.22517 2.83703 6.92213 2.83703V2.83803Z" fill="black"/>
</svg>
