<svg width="42" height="42" viewBox="0 0 42 42" fill="none" xmlns="http://www.w3.org/2000/svg">
<path opacity="0.2" d="M21 41.7225C32.598 41.7225 42 32.4105 42 20.9236C42 9.43674 32.598 0.124771 21 0.124771C9.40202 0.124771 0 9.43674 0 20.9236C0 32.4105 9.40202 41.7225 21 41.7225Z" fill="#EC642A"/>
<path fill-rule="evenodd" clip-rule="evenodd" d="M23.1391 30.1144H31.4771C31.545 30.1144 31.6101 30.0877 31.6581 30.0402C31.7061 29.9926 31.7331 29.9281 31.7331 29.8609V23.3607C31.9804 23.463 32.2561 23.476 32.5121 23.3974C32.6817 23.3422 32.8312 23.2389 32.9421 23.1002C33.0538 22.9624 33.1232 22.7957 33.1421 22.6199C33.1554 22.4587 33.1362 22.2964 33.0857 22.1426C33.0353 21.9887 32.9545 21.8463 32.8481 21.7236C32.8364 21.7082 32.8226 21.6945 32.8071 21.683L32.0691 21.1481V18.0352H30.0211V19.6665L25.3211 16.2653C25.2762 16.2251 25.2186 16.2017 25.1581 16.1991C25.0977 16.1966 25.0382 16.2151 24.9901 16.2515L22.1791 18.2809L17.7501 15.0867C17.698 15.0469 17.6334 15.0266 17.5677 15.0295C17.5019 15.0324 17.4394 15.0583 17.3911 15.1026L9.28209 20.9699C9.26521 20.9827 9.25008 20.9977 9.23709 21.0144C9.12087 21.1468 9.03267 21.3009 8.9777 21.4676C8.92273 21.6343 8.90212 21.8103 8.91709 21.985C8.93718 22.1751 9.01178 22.3556 9.13209 22.505C9.25273 22.6547 9.4146 22.7665 9.59809 22.8269C9.87527 22.9126 10.1741 22.8989 10.4421 22.7883V29.8331C10.4421 29.9062 10.4714 29.9762 10.5235 30.0278C10.5756 30.0795 10.6464 30.1085 10.7201 30.1085H23.1391V30.1144ZM24.6871 23.9629H25.7581V29.4736H31.0881V23.0953C31.0887 23.073 31.0914 23.0508 31.0961 23.0289L25.1071 18.7731L23.9851 19.5833L25.8751 20.9471L25.9091 20.9768C26.0611 21.1224 26.1733 21.3038 26.2354 21.504C26.2975 21.7042 26.3074 21.9167 26.2641 22.1217C26.2229 22.292 26.1397 22.4494 26.0219 22.58C25.904 22.7105 25.7553 22.81 25.5891 22.8695C25.4427 22.9198 25.2877 22.9405 25.1331 22.9304C24.9785 22.9204 24.8276 22.8798 24.6891 22.811V23.9619L24.6871 23.9629ZM22.1871 12.5731C22.5033 12.5737 22.8094 12.6828 23.0535 12.8819C23.2975 13.081 23.4643 13.3578 23.5255 13.665C23.5867 13.9722 23.5384 14.2909 23.389 14.5669C23.2396 14.8428 22.9982 15.0589 22.7059 15.1784C22.4137 15.2979 22.0886 15.3134 21.7862 15.2222C21.4837 15.131 21.2225 14.9387 21.0471 14.6782C20.8716 14.4177 20.7928 14.1051 20.824 13.7934C20.8552 13.4818 20.9944 13.1906 21.2181 12.9692C21.4753 12.7152 21.8238 12.5727 22.1871 12.5731ZM20.9661 12.0778C20.9548 12.0606 20.9471 12.0413 20.9436 12.0211C20.94 12.0009 20.9407 11.9802 20.9454 11.9602C20.9502 11.9402 20.9591 11.9214 20.9714 11.905C20.9837 11.8885 20.9993 11.8746 21.0172 11.8643C21.0351 11.8539 21.055 11.8473 21.0755 11.8448C21.0961 11.8423 21.117 11.8439 21.1369 11.8496C21.1568 11.8553 21.1753 11.865 21.1913 11.878C21.2073 11.891 21.2205 11.9071 21.2301 11.9253L21.4301 12.2611C21.4414 12.2783 21.449 12.2976 21.4526 12.3178C21.4561 12.338 21.4555 12.3587 21.4507 12.3787C21.4459 12.3987 21.4371 12.4175 21.4248 12.434C21.4124 12.4505 21.3968 12.4643 21.3789 12.4746C21.361 12.485 21.3412 12.4916 21.3206 12.4941C21.3001 12.4966 21.2792 12.495 21.2593 12.4893C21.2394 12.4836 21.2209 12.4739 21.2049 12.4609C21.1888 12.4479 21.1756 12.4318 21.1661 12.4136L20.9661 12.0778ZM22.0661 11.7223C22.0661 11.6818 22.0823 11.643 22.1112 11.6144C22.1401 11.5858 22.1792 11.5698 22.2201 11.5698C22.2609 11.5698 22.3001 11.5858 22.329 11.6144C22.3579 11.643 22.3741 11.6818 22.3741 11.7223V12.1016C22.3741 12.1421 22.3579 12.1809 22.329 12.2095C22.3001 12.2381 22.2609 12.2541 22.2201 12.2541C22.1792 12.2541 22.1401 12.2381 22.1112 12.2095C22.0823 12.1809 22.0661 12.1421 22.0661 12.1016V11.7134V11.7223ZM23.2071 11.9501C23.2272 11.9151 23.2606 11.8896 23.2998 11.879C23.339 11.8684 23.3808 11.8737 23.4161 11.8936C23.4514 11.9136 23.4772 11.9466 23.4879 11.9854C23.4986 12.0243 23.4932 12.0657 23.4731 12.1006L23.2731 12.4364C23.2529 12.4713 23.2196 12.4969 23.1804 12.5075C23.1412 12.5181 23.0994 12.5128 23.0641 12.4928C23.0288 12.4729 23.003 12.4398 22.9923 12.401C22.9816 12.3622 22.9869 12.3208 23.0071 12.2858L23.2071 11.9501ZM24.0691 12.7157C24.0865 12.7045 24.1059 12.6969 24.1264 12.6934C24.1468 12.6899 24.1677 12.6905 24.1879 12.6952C24.208 12.7 24.227 12.7087 24.2436 12.7209C24.2603 12.7332 24.2743 12.7486 24.2847 12.7663C24.2951 12.784 24.3018 12.8037 24.3044 12.8241C24.3069 12.8444 24.3053 12.8651 24.2995 12.8848C24.2938 12.9045 24.284 12.9229 24.2709 12.9387C24.2577 12.9546 24.2415 12.9677 24.2231 12.9771L23.8821 13.1752C23.8647 13.1864 23.8452 13.194 23.8248 13.1975C23.8044 13.201 23.7835 13.2004 23.7633 13.1957C23.7432 13.1909 23.7242 13.1822 23.7075 13.17C23.6909 13.1578 23.6769 13.1423 23.6665 13.1246C23.656 13.1069 23.6493 13.0872 23.6468 13.0668C23.6442 13.0465 23.6459 13.0258 23.6517 13.0061C23.6574 12.9864 23.6672 12.968 23.6803 12.9522C23.6934 12.9363 23.7097 12.9232 23.7281 12.9138L24.0691 12.7157ZM24.4301 13.8051C24.4709 13.8051 24.5101 13.8212 24.539 13.8498C24.5679 13.8784 24.5841 13.9172 24.5841 13.9577C24.5841 13.9981 24.5679 14.0369 24.539 14.0655C24.5101 14.0941 24.4709 14.1102 24.4301 14.1102H24.0371C24.0169 14.1102 23.9968 14.1062 23.9782 14.0986C23.9595 14.0909 23.9425 14.0797 23.9282 14.0655C23.9139 14.0514 23.9025 14.0345 23.8948 14.016C23.8871 13.9975 23.8831 13.9777 23.8831 13.9577C23.8831 13.9376 23.8871 13.9178 23.8948 13.8993C23.9025 13.8808 23.9139 13.864 23.9282 13.8498C23.9425 13.8356 23.9595 13.8244 23.9782 13.8167C23.9968 13.8091 24.0169 13.8051 24.0371 13.8051H24.4301ZM24.1891 14.9283C24.2244 14.9482 24.2502 14.9813 24.2609 15.0201C24.2716 15.0589 24.2662 15.1003 24.2461 15.1353C24.2259 15.1702 24.1926 15.1958 24.1534 15.2064C24.1142 15.217 24.0724 15.2117 24.0371 15.1917L23.6961 14.9936C23.6621 14.9732 23.6374 14.9404 23.6274 14.9023C23.6174 14.8641 23.6227 14.8236 23.6424 14.7893C23.662 14.755 23.6944 14.7296 23.7326 14.7186C23.7709 14.7076 23.8119 14.7117 23.8471 14.7302L24.1891 14.9283ZM23.4161 15.782C23.4263 15.7992 23.433 15.8181 23.4358 15.8379C23.4385 15.8576 23.4373 15.8776 23.4322 15.8969C23.4271 15.9161 23.4182 15.9342 23.406 15.95C23.3938 15.9658 23.3785 15.9791 23.3611 15.989C23.326 16.0089 23.2844 16.0144 23.2453 16.0042C23.2062 15.994 23.1727 15.969 23.1521 15.9345L22.9521 15.5988C22.9408 15.5816 22.9331 15.5623 22.9296 15.5421C22.926 15.5219 22.9267 15.5011 22.9314 15.4812C22.9362 15.4612 22.9451 15.4424 22.9574 15.4259C22.9697 15.4094 22.9853 15.3956 23.0032 15.3852C23.0211 15.3749 23.041 15.3683 23.0615 15.3657C23.0821 15.3632 23.103 15.3649 23.1229 15.3706C23.1428 15.3763 23.1613 15.3859 23.1773 15.3989C23.1933 15.412 23.2065 15.4281 23.2161 15.4463L23.4161 15.782ZM22.3161 16.1396C22.3161 16.18 22.2999 16.2188 22.271 16.2474C22.2421 16.276 22.2029 16.2921 22.1621 16.2921C22.1212 16.2921 22.0821 16.276 22.0532 16.2474C22.0243 16.2188 22.0081 16.18 22.0081 16.1396V15.7493C22.0081 15.7089 22.0243 15.6701 22.0532 15.6415C22.0821 15.6129 22.1212 15.5968 22.1621 15.5968C22.2029 15.5968 22.2421 15.6129 22.271 15.6415C22.2999 15.6701 22.3161 15.7089 22.3161 15.7493V16.1396ZM21.1841 15.9009C21.1639 15.9358 21.1306 15.9614 21.0914 15.972C21.0522 15.9826 21.0104 15.9773 20.9751 15.9573C20.9398 15.9374 20.914 15.9043 20.9033 15.8655C20.8926 15.8267 20.8979 15.7853 20.9181 15.7503L21.1181 15.4146C21.1382 15.3796 21.1716 15.3541 21.2108 15.3435C21.25 15.3329 21.2918 15.3382 21.3271 15.3581C21.3624 15.3781 21.3882 15.4111 21.3989 15.4499C21.4096 15.4887 21.4042 15.5302 21.3841 15.5651L21.1841 15.9009ZM20.3221 15.1373C20.2872 15.1552 20.2467 15.1592 20.209 15.1483C20.1713 15.1375 20.1392 15.1127 20.1194 15.0791C20.0996 15.0455 20.0936 15.0057 20.1027 14.9678C20.1117 14.93 20.1352 14.897 20.1681 14.8758L20.5071 14.6777C20.5245 14.6665 20.5439 14.6589 20.5644 14.6554C20.5848 14.6519 20.6057 14.6525 20.6259 14.6573C20.646 14.662 20.665 14.6707 20.6816 14.683C20.6983 14.6952 20.7123 14.7106 20.7227 14.7283C20.7331 14.7461 20.7398 14.7657 20.7424 14.7861C20.7449 14.8065 20.7433 14.8271 20.7375 14.8468C20.7318 14.8666 20.722 14.8849 20.7089 14.9008C20.6957 14.9166 20.6795 14.9297 20.6611 14.9392L20.3221 15.1373ZM19.9611 14.0478C19.9409 14.0478 19.9208 14.0438 19.9022 14.0362C19.8835 14.0285 19.8665 14.0173 19.8522 14.0031C19.8379 13.989 19.8265 13.9721 19.8188 13.9536C19.8111 13.9351 19.8071 13.9153 19.8071 13.8953C19.8071 13.8752 19.8111 13.8554 19.8188 13.8369C19.8265 13.8184 19.8379 13.8016 19.8522 13.7874C19.8665 13.7733 19.8835 13.762 19.9022 13.7544C19.9208 13.7467 19.9409 13.7427 19.9611 13.7427H20.3541C20.3949 13.7427 20.4341 13.7588 20.463 13.7874C20.4919 13.816 20.5081 13.8548 20.5081 13.8953C20.5081 13.9357 20.4919 13.9745 20.463 14.0031C20.4341 14.0317 20.3949 14.0478 20.3541 14.0478H19.9611ZM20.2001 12.9247C20.1826 12.9148 20.1673 12.9016 20.155 12.8858C20.1427 12.8701 20.1336 12.8521 20.1283 12.8328C20.1176 12.794 20.1229 12.7526 20.1431 12.7177C20.1632 12.6827 20.1966 12.6571 20.2358 12.6466C20.275 12.636 20.3168 12.6412 20.3521 12.6612L20.6931 12.8593C20.7106 12.8692 20.7259 12.8824 20.7382 12.8981C20.7505 12.9139 20.7596 12.9319 20.7649 12.9511C20.7702 12.9703 20.7716 12.9904 20.769 13.0101C20.7665 13.0299 20.7601 13.049 20.7501 13.0663C20.7401 13.0836 20.7268 13.0988 20.7109 13.111C20.695 13.1232 20.6768 13.1321 20.6574 13.1374C20.638 13.1426 20.6177 13.144 20.5978 13.1415C20.5778 13.139 20.5586 13.1326 20.5411 13.1227L20.2001 12.9247ZM15.4001 24.0481H19.8071V29.4221H23.9851V22.4892C23.9852 22.4715 23.9872 22.4539 23.9911 22.4367L17.6281 17.8203L11.1281 22.4347C11.1343 22.4576 11.1377 22.4812 11.1381 22.505V29.4191H15.3951V24.0461L15.4001 24.0481ZM16.3561 19.7813H17.4921V20.9283H16.3561V19.7813ZM19.0391 21.3125H17.9071V22.4555H19.0431V21.3096L19.0391 21.3125ZM16.3561 21.3125H17.4921V22.4555H16.3561V21.3096V21.3125ZM19.0381 19.7813H17.9071V20.9283H19.0431V19.7813H19.0381Z" fill="#EC642A"/>
</svg>
